<svg viewBox="0 0 1431 400" xmlns="http://www.w3.org/2000/svg"><g><g><g><g><g><line x1="50" y1="378" x2="45" y2="378" style="visibility: inherit;" fill="rgb(0, 0, 0)" stroke="rgb(204, 204, 204)" stroke-width="1px"></line><line x1="50" y1="351" x2="45" y2="351" style="visibility: inherit;" fill="rgb(0, 0, 0)" stroke="rgb(204, 204, 204)" stroke-width="1px"></line><line x1="50" y1="324" x2="45" y2="324" style="visibility: inherit;" fill="rgb(0, 0, 0)" stroke="rgb(204, 204, 204)" stroke-width="1px"></line><line x1="50" y1="297" x2="45" y2="297" style="visibility: inherit;" fill="rgb(0, 0, 0)" stroke="rgb(204, 204, 204)" stroke-width="1px"></line><line x1="50" y1="270" x2="45" y2="270" style="visibility: inherit;" fill="rgb(0, 0, 0)" stroke="rgb(204, 204, 204)" stroke-width="1px"></line><line x1="50" y1="243.00000000000003" x2="45" y2="243.00000000000003" style="visibility: inherit;" fill="rgb(0, 0, 0)" stroke="rgb(204, 204, 204)" stroke-width="1px"></line><line x1="50" y1="216.00000000000006" x2="45" y2="216.00000000000006" style="visibility: inherit;" fill="rgb(0, 0, 0)" stroke="rgb(204, 204, 204)" stroke-width="1px"></line><line x1="50" y1="189.00000000000003" x2="45" y2="189.00000000000003" style="visibility: inherit;" fill="rgb(0, 0, 0)" stroke="rgb(204, 204, 204)" stroke-width="1px"></line><line x1="50" y1="162" x2="45" y2="162" style="visibility: inherit;" fill="rgb(0, 0, 0)" stroke="rgb(204, 204, 204)" stroke-width="1px"></line><line x1="50" y1="135.00000000000006" x2="45" y2="135.00000000000006" style="visibility: inherit;" fill="rgb(0, 0, 0)" stroke="rgb(204, 204, 204)" stroke-width="1px"></line><line x1="50" y1="108.00000000000006" x2="45" y2="108.00000000000006" style="visibility: inherit;" fill="rgb(0, 0, 0)" stroke="rgb(204, 204, 204)" stroke-width="1px"></line><line x1="50" y1="81.00000000000006" x2="45" y2="81.00000000000006" style="visibility: inherit;" fill="rgb(0, 0, 0)" stroke="rgb(204, 204, 204)" stroke-width="1px"></line><line x1="50" y1="54.00000000000006" x2="45" y2="54.00000000000006" style="visibility: inherit;" fill="rgb(0, 0, 0)" stroke="rgb(204, 204, 204)" stroke-width="1px"></line><line x1="50" y1="27.000000000000057" x2="45" y2="27.000000000000057" style="visibility: inherit;" fill="rgb(0, 0, 0)" stroke="rgb(204, 204, 204)" stroke-width="1px"></line><line x1="50" y1="0" x2="45" y2="0" style="visibility: inherit;" fill="rgb(0, 0, 0)" stroke="rgb(204, 204, 204)" stroke-width="1px"></line></g><g transform="translate(40, 0)"><text x="0" y="378" dx="0em" dy="0.3em" style="text-anchor: end; visibility: hidden; font-family: &quot;Helvetica Neue&quot;, sans-serif; font-size: 12px; font-weight: 200;" fill="rgb(50, 49, 63)" stroke="none" stroke-width="1px">0.4</text><text x="0" y="351" dx="0em" dy="0.3em" style="text-anchor: end; visibility: inherit; font-family: &quot;Helvetica Neue&quot;, sans-serif; font-size: 12px; font-weight: 200;" fill="rgb(50, 49, 63)" stroke="none" stroke-width="1px">0.45</text><text x="0" y="324" dx="0em" dy="0.3em" style="text-anchor: end; visibility: inherit; font-family: &quot;Helvetica Neue&quot;, sans-serif; font-size: 12px; font-weight: 200;" fill="rgb(50, 49, 63)" stroke="none" stroke-width="1px">0.5</text><text x="0" y="297" dx="0em" dy="0.3em" style="text-anchor: end; visibility: inherit; font-family: &quot;Helvetica Neue&quot;, sans-serif; font-size: 12px; font-weight: 200;" fill="rgb(50, 49, 63)" stroke="none" stroke-width="1px">0.55</text><text x="0" y="270" dx="0em" dy="0.3em" style="text-anchor: end; visibility: inherit; font-family: &quot;Helvetica Neue&quot;, sans-serif; font-size: 12px; font-weight: 200;" fill="rgb(50, 49, 63)" stroke="none" stroke-width="1px">0.6</text><text x="0" y="243.00000000000003" dx="0em" dy="0.3em" style="text-anchor: end; visibility: inherit; font-family: &quot;Helvetica Neue&quot;, sans-serif; font-size: 12px; font-weight: 200;" fill="rgb(50, 49, 63)" stroke="none" stroke-width="1px">0.65</text><text x="0" y="216.00000000000006" dx="0em" dy="0.3em" style="text-anchor: end; visibility: inherit; font-family: &quot;Helvetica Neue&quot;, sans-serif; font-size: 12px; font-weight: 200;" fill="rgb(50, 49, 63)" stroke="none" stroke-width="1px">0.7</text><text x="0" y="189.00000000000003" dx="0em" dy="0.3em" style="text-anchor: end; visibility: inherit; font-family: &quot;Helvetica Neue&quot;, sans-serif; font-size: 12px; font-weight: 200;" fill="rgb(50, 49, 63)" stroke="none" stroke-width="1px">0.75</text><text x="0" y="162" dx="0em" dy="0.3em" style="text-anchor: end; visibility: inherit; font-family: &quot;Helvetica Neue&quot;, sans-serif; font-size: 12px; font-weight: 200;" fill="rgb(50, 49, 63)" stroke="none" stroke-width="1px">0.8</text><text x="0" y="135.00000000000006" dx="0em" dy="0.3em" style="text-anchor: end; visibility: inherit; font-family: &quot;Helvetica Neue&quot;, sans-serif; font-size: 12px; font-weight: 200;" fill="rgb(50, 49, 63)" stroke="none" stroke-width="1px">0.85</text><text x="0" y="108.00000000000006" dx="0em" dy="0.3em" style="text-anchor: end; visibility: inherit; font-family: &quot;Helvetica Neue&quot;, sans-serif; font-size: 12px; font-weight: 200;" fill="rgb(50, 49, 63)" stroke="none" stroke-width="1px">0.9</text><text x="0" y="81.00000000000006" dx="0em" dy="0.3em" style="text-anchor: end; visibility: inherit; font-family: &quot;Helvetica Neue&quot;, sans-serif; font-size: 12px; font-weight: 200;" fill="rgb(50, 49, 63)" stroke="none" stroke-width="1px">0.95</text><text x="0" y="54.00000000000006" dx="0em" dy="0.3em" style="text-anchor: end; visibility: inherit; font-family: &quot;Helvetica Neue&quot;, sans-serif; font-size: 12px; font-weight: 200;" fill="rgb(50, 49, 63)" stroke="none" stroke-width="1px">1</text><text x="0" y="27.000000000000057" dx="0em" dy="0.3em" style="text-anchor: end; visibility: inherit; font-family: &quot;Helvetica Neue&quot;, sans-serif; font-size: 12px; font-weight: 200;" fill="rgb(50, 49, 63)" stroke="none" stroke-width="1px">1.05</text><text x="0" y="0" dx="0em" dy="0.3em" style="text-anchor: end; visibility: hidden; font-family: &quot;Helvetica Neue&quot;, sans-serif; font-size: 12px; font-weight: 200;" fill="rgb(50, 49, 63)" stroke="none" stroke-width="1px">1.1</text></g><line x1="50" y1="0" x2="50" y2="378" fill="rgb(0, 0, 0)" stroke="rgb(204, 204, 204)" stroke-width="1px"></line></g></g><g transform="translate(50, 0)" clip-path="url(#clip_0)"><clipPath id="clip_0"><rect width="1381" height="378"></rect></clipPath><g><g><g><line x1="0" y1="0" x2="0" y2="378" fill="rgb(0, 0, 0)" stroke="rgb(60, 60, 60)" stroke-width="1px" opacity="0.25"></line><line x1="106.23076923076924" y1="0" x2="106.23076923076924" y2="378" fill="rgb(0, 0, 0)" stroke="rgb(60, 60, 60)" stroke-width="1px" opacity="0.25"></line><line x1="212.46153846153848" y1="0" x2="212.46153846153848" y2="378" fill="rgb(0, 0, 0)" stroke="rgb(60, 60, 60)" stroke-width="1px" opacity="0.25"></line><line x1="318.69230769230774" y1="0" x2="318.69230769230774" y2="378" fill="rgb(0, 0, 0)" stroke="rgb(60, 60, 60)" stroke-width="1px" opacity="0.25"></line><line x1="424.92307692307696" y1="0" x2="424.92307692307696" y2="378" fill="rgb(0, 0, 0)" stroke="rgb(60, 60, 60)" stroke-width="1px" opacity="0.25"></line><line x1="531.1538461538462" y1="0" x2="531.1538461538462" y2="378" fill="rgb(0, 0, 0)" stroke="rgb(60, 60, 60)" stroke-width="1px" opacity="0.25"></line><line x1="637.3846153846155" y1="0" x2="637.3846153846155" y2="378" fill="rgb(0, 0, 0)" stroke="rgb(60, 60, 60)" stroke-width="1px" opacity="0.25"></line><line x1="743.6153846153845" y1="0" x2="743.6153846153845" y2="378" fill="rgb(0, 0, 0)" stroke="rgb(60, 60, 60)" stroke-width="1px" opacity="0.25"></line><line x1="849.8461538461539" y1="0" x2="849.8461538461539" y2="378" fill="rgb(0, 0, 0)" stroke="rgb(60, 60, 60)" stroke-width="1px" opacity="0.25"></line><line x1="956.0769230769231" y1="0" x2="956.0769230769231" y2="378" fill="rgb(0, 0, 0)" stroke="rgb(60, 60, 60)" stroke-width="1px" opacity="0.25"></line><line x1="1062.3076923076924" y1="0" x2="1062.3076923076924" y2="378" fill="rgb(0, 0, 0)" stroke="rgb(60, 60, 60)" stroke-width="1px" opacity="0.25"></line><line x1="1168.5384615384614" y1="0" x2="1168.5384615384614" y2="378" fill="rgb(0, 0, 0)" stroke="rgb(60, 60, 60)" stroke-width="1px" opacity="0.25"></line><line x1="1274.769230769231" y1="0" x2="1274.769230769231" y2="378" fill="rgb(0, 0, 0)" stroke="rgb(60, 60, 60)" stroke-width="1px" opacity="0.25"></line><line x1="1381" y1="0" x2="1381" y2="378" fill="rgb(0, 0, 0)" stroke="rgb(60, 60, 60)" stroke-width="1px" opacity="0.25"></line></g><g><line x1="0" y1="378" x2="1381" y2="378" fill="rgb(0, 0, 0)" stroke="rgb(60, 60, 60)" stroke-width="1px" opacity="0.25"></line><line x1="0" y1="351" x2="1381" y2="351" fill="rgb(0, 0, 0)" stroke="rgb(60, 60, 60)" stroke-width="1px" opacity="0.25"></line><line x1="0" y1="324" x2="1381" y2="324" fill="rgb(0, 0, 0)" stroke="rgb(60, 60, 60)" stroke-width="1px" opacity="0.25"></line><line x1="0" y1="297" x2="1381" y2="297" fill="rgb(0, 0, 0)" stroke="rgb(60, 60, 60)" stroke-width="1px" opacity="0.25"></line><line x1="0" y1="270" x2="1381" y2="270" fill="rgb(0, 0, 0)" stroke="rgb(60, 60, 60)" stroke-width="1px" opacity="0.25"></line><line x1="0" y1="243.00000000000003" x2="1381" y2="243.00000000000003" fill="rgb(0, 0, 0)" stroke="rgb(60, 60, 60)" stroke-width="1px" opacity="0.25"></line><line x1="0" y1="216.00000000000006" x2="1381" y2="216.00000000000006" fill="rgb(0, 0, 0)" stroke="rgb(60, 60, 60)" stroke-width="1px" opacity="0.25"></line><line x1="0" y1="189.00000000000003" x2="1381" y2="189.00000000000003" fill="rgb(0, 0, 0)" stroke="rgb(60, 60, 60)" stroke-width="1px" opacity="0.25"></line><line x1="0" y1="162" x2="1381" y2="162" fill="rgb(0, 0, 0)" stroke="rgb(60, 60, 60)" stroke-width="1px" opacity="0.25"></line><line x1="0" y1="135.00000000000006" x2="1381" y2="135.00000000000006" fill="rgb(0, 0, 0)" stroke="rgb(60, 60, 60)" stroke-width="1px" opacity="0.25"></line><line x1="0" y1="108.00000000000006" x2="1381" y2="108.00000000000006" fill="rgb(0, 0, 0)" stroke="rgb(60, 60, 60)" stroke-width="1px" opacity="0.25"></line><line x1="0" y1="81.00000000000006" x2="1381" y2="81.00000000000006" fill="rgb(0, 0, 0)" stroke="rgb(60, 60, 60)" stroke-width="1px" opacity="0.25"></line><line x1="0" y1="54.00000000000006" x2="1381" y2="54.00000000000006" fill="rgb(0, 0, 0)" stroke="rgb(60, 60, 60)" stroke-width="1px" opacity="0.25"></line><line x1="0" y1="27.000000000000057" x2="1381" y2="27.000000000000057" fill="rgb(0, 0, 0)" stroke="rgb(60, 60, 60)" stroke-width="1px" opacity="0.25"></line><line x1="0" y1="0" x2="1381" y2="0" fill="rgb(0, 0, 0)" stroke="rgb(60, 60, 60)" stroke-width="1px" opacity="0.25"></line></g></g></g><g><g><line x1="0" y1="594" x2="1381" y2="594" fill="rgb(0, 0, 0)" stroke="rgb(153, 153, 153)" stroke-width="1.5px"></line></g></g><g><g><line x1="106.23076923076924" y1="0" x2="106.23076923076924" y2="378" fill="rgb(0, 0, 0)" stroke="rgb(153, 153, 153)" stroke-width="1.5px"></line></g></g><g><g><g><g><g><path stroke="rgb(255, 112, 67)" stroke-width="2px" d="M106.23076923076924,307.36800813674927L111.5423076923077,296.97299310564995L116.85384615384616,285.30513551283855L122.16538461538462,272.51417266708967L127.47692307692309,258.77624580646705L132.78846153846155,244.27224248385195L138.1,229.17100450861915L143.41153846153847,213.61898885024203L148.72307692307695,197.73613427319637L154.0346153846154,181.61620342955513L159.34615384615387,165.32983276231002L164.65769230769232,148.92859817222836L169.9692307692308,132.44923940437872L175.2807692307692,115.91738265866167L180.5923076923077,99.35063748245443L185.90384615384613,83.36587095121314L191.21538461538464,73.7778975871924L196.52692307692305,68.02615234538138L201.83846153846156,64.57547907715576L207.15,62.505209694028224L212.46153846153848,61.263096508304784L217.77307692307693,60.517846035932564L223.0846153846154,60.070702030391715L228.39615384615385,59.80241788706593L233.70769230769233,59.64144821466164L239.01923076923077,59.54486670411006L244.33076923076925,59.48691790321948L249.6423076923077,59.452148660643616L254.95384615384617,59.431287128763074L260.2653846153846,59.41877021455423L265.5769230769231,59.4112600677999L270.8884615384615,59.40675398038485L276.2,59.40405032816528L281.51153846153846,59.40242813691617L286.82307692307694,59.4014548221964L292.13461538461536,59.400870833375336L297.4461538461539,59.40052044008655L302.7576923076923,59.40031020411459L308.0692307692308,59.40018406253199L313.3807692307692,59.40010837758257L318.69230769230774,59.40006296661306L324.00384615384615,59.400035720031326L329.31538461538463,59.400019372082284L334.62692307692305,59.400009563312835L339.9384615384616,59.40000367805118L345.25,59.40000014689423L350.5615384615384,59.3999980282L355.8730769230769,59.399996756983455L361.1846153846154,59.39999599425357L366.49615384615385,59.39999553661562L371.80769230769226,59.399995262032974L377.11923076923074,59.399995097283295L382.4307692307693,59.399994998433385L387.7423076923077,59.39999493912353L393.0538461538461,59.399994903537674L398.3653846153846,59.399994882186036L403.6769230769231,59.399994869375064L408.98846153846154,59.399994861688526L414.3,59.399994857076535L419.61153846153843,59.399994854309455L424.92307692307696,59.39999485264923L430.2346153846154,59.399994851653105L435.54615384615386,59.39999485105534L440.8576923076923,59.39999485069677L446.1692307692308,59.399994850481505L451.4807692307692,59.39999485035236L456.7923076923077,59.399994850274936L462.1038461538461,59.39999485022844L467.41538461538465,59.399994850200585L472.7269230769231,59.399994850183816L478.03846153846155,59.39999485017387L483.34999999999997,59.399994850167786L488.6615384615385,59.399994850164205L493.9730769230769,59.3999948501621L499.2846153846154,59.39999485016074L504.5961538461538,59.39999485015994L509.90769230769234,59.39999485015949L515.2192307692308,59.3999948501592L520.5307692307692,59.399994850158976L525.8423076923077,59.39999485015886L531.1538461538462,59.39999485015886L536.4653846153847,59.39999485015886L541.776923076923,59.39999485015886L547.0884615384615,59.39999485015886L552.4,59.39999485015886L557.7115384615385,59.39999485015886L563.0230769230769,59.39999485015886L568.3346153846154,59.39999485015886L573.6461538461539,59.39999485015886L578.9576923076924,59.39999485015886L584.2692307692307,59.39999485015886L589.5807692307692,59.39999485015886L594.8923076923078,59.39999485015886L600.2038461538461,59.39999485015886L605.5153846153846,59.39999485015886L610.8269230769231,59.39999485015886L616.1384615384616,59.39999485015886L621.45,59.39999485015886L626.7615384615384,59.39999485015886L632.0730769230769,59.39999485015886L637.3846153846155,59.39999485015886L642.6961538461538,59.39999485015886L648.0076923076923,59.39999485015886L653.3192307692308,59.39999485015886L658.6307692307693,59.39999485015886L663.9423076923077,59.39999485015886L669.2538461538461,59.39999485015886L674.5653846153846,59.39999485015886L679.8769230769232,59.39999485015886L685.1884615384615,59.39999485015886L690.5,59.39999485015886L695.8115384615385,59.39999485015886L701.1230769230768,59.39999485015886L706.4346153846153,59.39999485015886L711.7461538461538,59.39999485015886L717.0576923076924,59.39999485015886L722.3692307692309,59.39999485015886L727.6807692307692,59.39999485015886L732.9923076923077,59.39999485015886L738.3038461538462,59.39999485015886L743.6153846153845,59.39999485015886L748.926923076923,59.39999485015886L754.2384615384615,59.39999485015886L759.5500000000001,59.39999485015886L764.8615384615385,59.39999485015886L770.1730769230769,59.39999485015886L775.4846153846154,59.39999485015886L780.7961538461539,59.39999485015886L786.1076923076922,59.39999485015886L791.4192307692307,59.39999485015886L796.7307692307692,59.39999485015886L802.0423076923078,59.39999485015886L807.3538461538462,59.39999485015886L812.6653846153846,59.39999485015886L817.9769230769231,59.39999485015886L823.2884615384615,59.39999485015886L828.6,59.39999485015886L833.9115384615384,59.39999485015886L839.2230769230769,59.39999485015886L844.5346153846154,59.39999485015886L849.8461538461539,59.39999485015886L855.1576923076923,59.39999485015886L860.4692307692308,59.39999485015886L865.7807692307692,59.39999485015886L871.0923076923077,59.39999485015886L876.4038461538461,59.39999485015886L881.7153846153846,59.39999485015886L887.0269230769231,59.39999485015886L892.3384615384616,59.39999485015886L897.65,59.39999485015886L902.9615384615385,59.39999485015886L908.2730769230769,59.39999485015886L913.5846153846154,59.39999485015886L918.8961538461538,59.39999485015886L924.2076923076922,59.39999485015886L929.5192307692308,59.39999485015886L934.8307692307693,59.39999485015886L940.1423076923078,59.39999485015886L945.4538461538461,59.39999485015886L950.7653846153846,59.39999485015886L956.0769230769231,59.39999485015886L961.3884615384615,59.39999485015886L966.6999999999999,59.39999485015886L972.0115384615385,59.39999485015886L977.323076923077,59.39999485015886L982.6346153846155,59.39999485015886L987.9461538461538,59.39999485015886L993.2576923076923,59.39999485015886L998.5692307692308,59.39999485015886L1003.8807692307691,59.39999485015886L1009.1923076923076,59.39999485015886L1014.5038461538462,59.39999485015886L1019.8153846153847,59.39999485015886L1025.126923076923,59.39999485015886L1030.4384615384615,59.39999485015886L1035.75,59.39999485015886L1041.0615384615385,59.39999485015886L1046.373076923077,59.39999485015886L1051.6846153846154,59.39999485015886L1056.9961538461537,59.39999485015886L1062.3076923076924,59.39999485015886L1067.6192307692309,59.39999485015886L1072.9307692307693,59.39999485015886L1078.2423076923078,59.39999485015886L1083.553846153846,59.39999485015886L1088.8653846153845,59.39999485015886L1094.176923076923,59.39999485015886L1099.4884615384615,59.39999485015886L1104.8,59.39999485015886L1110.1115384615384,59.39999485015886L1115.423076923077,59.39999485015886L1120.7346153846154,59.39999485015886L1126.0461538461539,59.39999485015886L1131.3576923076923,59.39999485015886L1136.6692307692308,59.39999485015886L1141.980769230769,59.39999485015886L1147.2923076923078,59.39999485015886L1152.6038461538462,59.39999485015886L1157.9153846153847,59.39999485015886L1163.2269230769232,59.39999485015886L1168.5384615384614,59.39999485015886L1173.85,59.39999485015886L1179.1615384615384,59.39999485015886L1184.4730769230769,59.39999485015886L1189.7846153846156,59.39999485015886L1195.0961538461538,59.39999485015886L1200.4076923076923,59.39999485015886L1205.7192307692308,59.39999485015886L1211.0307692307692,59.39999485015886L1216.3423076923077,59.39999485015886L1221.6538461538462,59.39999485015886L1226.9653846153844,59.39999485015886L1232.2769230769231,59.39999485015886L1237.5884615384616,59.39999485015886L1242.9,59.39999485015886L1248.2115384615386,59.39999485015886L1253.5230769230768,59.39999485015886" style="fill: none;" fill="none"></path></g></g></g></g><g opacity="0.2"><g><g><g><path stroke="rgb(255, 112, 67)" stroke-width="2px" d="M106.23076923076924,307.36800813674927L111.5423076923077,290.73598408699036L116.85384615384616,274.1039922237396L122.16538461538462,257.4720003604889L127.47692307692309,240.8400084972382L132.78846153846155,224.20798444747928L138.1,207.57599258422854L143.41153846153847,190.9440007209778L148.72307692307695,174.3120088577271L154.0346153846154,157.67998480796817L159.34615384615387,141.04799294471744L164.65769230769232,124.4160010814667L169.9692307692308,107.784009218216L175.2807692307692,91.15198516845709L180.5923076923077,74.51999330520636L185.90384615384613,59.39999485015875L191.21538461538464,59.39999485015875L196.52692307692305,59.39999485015875L201.83846153846156,59.39999485015875L207.15,59.39999485015875L212.46153846153848,59.39999485015875L217.77307692307693,59.39999485015875L223.0846153846154,59.39999485015875L228.39615384615385,59.39999485015875L233.70769230769233,59.39999485015875L239.01923076923077,59.39999485015875L244.33076923076925,59.39999485015875L249.6423076923077,59.39999485015875L254.95384615384617,59.39999485015875L260.2653846153846,59.39999485015875L265.5769230769231,59.39999485015875L270.8884615384615,59.39999485015875L276.2,59.39999485015875L281.51153846153846,59.39999485015875L286.82307692307694,59.39999485015875L292.13461538461536,59.39999485015875L297.4461538461539,59.39999485015875L302.7576923076923,59.39999485015875L308.0692307692308,59.39999485015875L313.3807692307692,59.39999485015875L318.69230769230774,59.39999485015875L324.00384615384615,59.39999485015875L329.31538461538463,59.39999485015875L334.62692307692305,59.39999485015875L339.9384615384616,59.39999485015875L345.25,59.39999485015875L350.5615384615384,59.39999485015875L355.8730769230769,59.39999485015875L361.1846153846154,59.39999485015875L366.49615384615385,59.39999485015875L371.80769230769226,59.39999485015875L377.11923076923074,59.39999485015875L382.4307692307693,59.39999485015875L387.7423076923077,59.39999485015875L393.0538461538461,59.39999485015875L398.3653846153846,59.39999485015875L403.6769230769231,59.39999485015875L408.98846153846154,59.39999485015875L414.3,59.39999485015875L419.61153846153843,59.39999485015875L424.92307692307696,59.39999485015875L430.2346153846154,59.39999485015875L435.54615384615386,59.39999485015875L440.8576923076923,59.39999485015875L446.1692307692308,59.39999485015875L451.4807692307692,59.39999485015875L456.7923076923077,59.39999485015875L462.1038461538461,59.39999485015875L467.41538461538465,59.39999485015875L472.7269230769231,59.39999485015875L478.03846153846155,59.39999485015875L483.34999999999997,59.39999485015875L488.6615384615385,59.39999485015875L493.9730769230769,59.39999485015875L499.2846153846154,59.39999485015875L504.5961538461538,59.39999485015875L509.90769230769234,59.39999485015875L515.2192307692308,59.39999485015875L520.5307692307692,59.39999485015875L525.8423076923077,59.39999485015875L531.1538461538462,59.39999485015875L536.4653846153847,59.39999485015875L541.776923076923,59.39999485015875L547.0884615384615,59.39999485015875L552.4,59.39999485015875L557.7115384615385,59.39999485015875L563.0230769230769,59.39999485015875L568.3346153846154,59.39999485015875L573.6461538461539,59.39999485015875L578.9576923076924,59.39999485015875L584.2692307692307,59.39999485015875L589.5807692307692,59.39999485015875L594.8923076923078,59.39999485015875L600.2038461538461,59.39999485015875L605.5153846153846,59.39999485015875L610.8269230769231,59.39999485015875L616.1384615384616,59.39999485015875L621.45,59.39999485015875L626.7615384615384,59.39999485015875L632.0730769230769,59.39999485015875L637.3846153846155,59.39999485015875L642.6961538461538,59.39999485015875L648.0076923076923,59.39999485015875L653.3192307692308,59.39999485015875L658.6307692307693,59.39999485015875L663.9423076923077,59.39999485015875L669.2538461538461,59.39999485015875L674.5653846153846,59.39999485015875L679.8769230769232,59.39999485015875L685.1884615384615,59.39999485015875L690.5,59.39999485015875L695.8115384615385,59.39999485015875L701.1230769230768,59.39999485015875L706.4346153846153,59.39999485015875L711.7461538461538,59.39999485015875L717.0576923076924,59.39999485015875L722.3692307692309,59.39999485015875L727.6807692307692,59.39999485015875L732.9923076923077,59.39999485015875L738.3038461538462,59.39999485015875L743.6153846153845,59.39999485015875L748.926923076923,59.39999485015875L754.2384615384615,59.39999485015875L759.5500000000001,59.39999485015875L764.8615384615385,59.39999485015875L770.1730769230769,59.39999485015875L775.4846153846154,59.39999485015875L780.7961538461539,59.39999485015875L786.1076923076922,59.39999485015875L791.4192307692307,59.39999485015875L796.7307692307692,59.39999485015875L802.0423076923078,59.39999485015875L807.3538461538462,59.39999485015875L812.6653846153846,59.39999485015875L817.9769230769231,59.39999485015875L823.2884615384615,59.39999485015875L828.6,59.39999485015875L833.9115384615384,59.39999485015875L839.2230769230769,59.39999485015875L844.5346153846154,59.39999485015875L849.8461538461539,59.39999485015875L855.1576923076923,59.39999485015875L860.4692307692308,59.39999485015875L865.7807692307692,59.39999485015875L871.0923076923077,59.39999485015875L876.4038461538461,59.39999485015875L881.7153846153846,59.39999485015875L887.0269230769231,59.39999485015875L892.3384615384616,59.39999485015875L897.65,59.39999485015875L902.9615384615385,59.39999485015875L908.2730769230769,59.39999485015875L913.5846153846154,59.39999485015875L918.8961538461538,59.39999485015875L924.2076923076922,59.39999485015875L929.5192307692308,59.39999485015875L934.8307692307693,59.39999485015875L940.1423076923078,59.39999485015875L945.4538461538461,59.39999485015875L950.7653846153846,59.39999485015875L956.0769230769231,59.39999485015875L961.3884615384615,59.39999485015875L966.6999999999999,59.39999485015875L972.0115384615385,59.39999485015875L977.323076923077,59.39999485015875L982.6346153846155,59.39999485015875L987.9461538461538,59.39999485015875L993.2576923076923,59.39999485015875L998.5692307692308,59.39999485015875L1003.8807692307691,59.39999485015875L1009.1923076923076,59.39999485015875L1014.5038461538462,59.39999485015875L1019.8153846153847,59.39999485015875L1025.126923076923,59.39999485015875L1030.4384615384615,59.39999485015875L1035.75,59.39999485015875L1041.0615384615385,59.39999485015875L1046.373076923077,59.39999485015875L1051.6846153846154,59.39999485015875L1056.9961538461537,59.39999485015875L1062.3076923076924,59.39999485015875L1067.6192307692309,59.39999485015875L1072.9307692307693,59.39999485015875L1078.2423076923078,59.39999485015875L1083.553846153846,59.39999485015875L1088.8653846153845,59.39999485015875L1094.176923076923,59.39999485015875L1099.4884615384615,59.39999485015875L1104.8,59.39999485015875L1110.1115384615384,59.39999485015875L1115.423076923077,59.39999485015875L1120.7346153846154,59.39999485015875L1126.0461538461539,59.39999485015875L1131.3576923076923,59.39999485015875L1136.6692307692308,59.39999485015875L1141.980769230769,59.39999485015875L1147.2923076923078,59.39999485015875L1152.6038461538462,59.39999485015875L1157.9153846153847,59.39999485015875L1163.2269230769232,59.39999485015875L1168.5384615384614,59.39999485015875L1173.85,59.39999485015875L1179.1615384615384,59.39999485015875L1184.4730769230769,59.39999485015875L1189.7846153846156,59.39999485015875L1195.0961538461538,59.39999485015875L1200.4076923076923,59.39999485015875L1205.7192307692308,59.39999485015875L1211.0307692307692,59.39999485015875L1216.3423076923077,59.39999485015875L1221.6538461538462,59.39999485015875L1226.9653846153844,59.39999485015875L1232.2769230769231,59.39999485015875L1237.5884615384616,59.39999485015875L1242.9,59.39999485015875L1248.2115384615386,59.39999485015875L1253.5230769230768,59.39999485015875" style="fill: none;" fill="none"></path></g></g></g></g></g></g><g transform="translate(50, 378)" clip-path="url(#clip_1)"><clipPath id="clip_1"><rect width="1381" height="22"></rect></clipPath><g><g><line x1="0" y1="0" x2="0" y2="5" style="visibility: inherit;" fill="rgb(0, 0, 0)" stroke="rgb(204, 204, 204)" stroke-width="1px"></line><line x1="106.23076923076924" y1="0" x2="106.23076923076924" y2="5" style="visibility: inherit;" fill="rgb(0, 0, 0)" stroke="rgb(204, 204, 204)" stroke-width="1px"></line><line x1="212.46153846153848" y1="0" x2="212.46153846153848" y2="5" style="visibility: inherit;" fill="rgb(0, 0, 0)" stroke="rgb(204, 204, 204)" stroke-width="1px"></line><line x1="318.69230769230774" y1="0" x2="318.69230769230774" y2="5" style="visibility: inherit;" fill="rgb(0, 0, 0)" stroke="rgb(204, 204, 204)" stroke-width="1px"></line><line x1="424.92307692307696" y1="0" x2="424.92307692307696" y2="5" style="visibility: inherit;" fill="rgb(0, 0, 0)" stroke="rgb(204, 204, 204)" stroke-width="1px"></line><line x1="531.1538461538462" y1="0" x2="531.1538461538462" y2="5" style="visibility: inherit;" fill="rgb(0, 0, 0)" stroke="rgb(204, 204, 204)" stroke-width="1px"></line><line x1="637.3846153846155" y1="0" x2="637.3846153846155" y2="5" style="visibility: inherit;" fill="rgb(0, 0, 0)" stroke="rgb(204, 204, 204)" stroke-width="1px"></line><line x1="743.6153846153845" y1="0" x2="743.6153846153845" y2="5" style="visibility: inherit;" fill="rgb(0, 0, 0)" stroke="rgb(204, 204, 204)" stroke-width="1px"></line><line x1="849.8461538461539" y1="0" x2="849.8461538461539" y2="5" style="visibility: inherit;" fill="rgb(0, 0, 0)" stroke="rgb(204, 204, 204)" stroke-width="1px"></line><line x1="956.0769230769231" y1="0" x2="956.0769230769231" y2="5" style="visibility: inherit;" fill="rgb(0, 0, 0)" stroke="rgb(204, 204, 204)" stroke-width="1px"></line><line x1="1062.3076923076924" y1="0" x2="1062.3076923076924" y2="5" style="visibility: inherit;" fill="rgb(0, 0, 0)" stroke="rgb(204, 204, 204)" stroke-width="1px"></line><line x1="1168.5384615384614" y1="0" x2="1168.5384615384614" y2="5" style="visibility: inherit;" fill="rgb(0, 0, 0)" stroke="rgb(204, 204, 204)" stroke-width="1px"></line><line x1="1274.769230769231" y1="0" x2="1274.769230769231" y2="5" style="visibility: inherit;" fill="rgb(0, 0, 0)" stroke="rgb(204, 204, 204)" stroke-width="1px"></line><line x1="1381" y1="0" x2="1381" y2="5" style="visibility: inherit;" fill="rgb(0, 0, 0)" stroke="rgb(204, 204, 204)" stroke-width="1px"></line></g><g transform="translate(0, 8)"><text x="0" y="0" dx="0em" dy="0.95em" style="text-anchor: middle; visibility: hidden; font-family: &quot;Helvetica Neue&quot;, sans-serif; font-size: 12px; font-weight: 200;" fill="rgb(50, 49, 63)" stroke="none" stroke-width="1px">-20</text><text x="106.23076923076924" y="0" dx="0em" dy="0.95em" style="text-anchor: middle; visibility: inherit; font-family: &quot;Helvetica Neue&quot;, sans-serif; font-size: 12px; font-weight: 200;" fill="rgb(50, 49, 63)" stroke="none" stroke-width="1px">0</text><text x="212.46153846153848" y="0" dx="0em" dy="0.95em" style="text-anchor: middle; visibility: inherit; font-family: &quot;Helvetica Neue&quot;, sans-serif; font-size: 12px; font-weight: 200;" fill="rgb(50, 49, 63)" stroke="none" stroke-width="1px">20</text><text x="318.69230769230774" y="0" dx="0em" dy="0.95em" style="text-anchor: middle; visibility: inherit; font-family: &quot;Helvetica Neue&quot;, sans-serif; font-size: 12px; font-weight: 200;" fill="rgb(50, 49, 63)" stroke="none" stroke-width="1px">40</text><text x="424.92307692307696" y="0" dx="0em" dy="0.95em" style="text-anchor: middle; visibility: inherit; font-family: &quot;Helvetica Neue&quot;, sans-serif; font-size: 12px; font-weight: 200;" fill="rgb(50, 49, 63)" stroke="none" stroke-width="1px">60</text><text x="531.1538461538462" y="0" dx="0em" dy="0.95em" style="text-anchor: middle; visibility: inherit; font-family: &quot;Helvetica Neue&quot;, sans-serif; font-size: 12px; font-weight: 200;" fill="rgb(50, 49, 63)" stroke="none" stroke-width="1px">80</text><text x="637.3846153846155" y="0" dx="0em" dy="0.95em" style="text-anchor: middle; visibility: inherit; font-family: &quot;Helvetica Neue&quot;, sans-serif; font-size: 12px; font-weight: 200;" fill="rgb(50, 49, 63)" stroke="none" stroke-width="1px">100</text><text x="743.6153846153845" y="0" dx="0em" dy="0.95em" style="text-anchor: middle; visibility: inherit; font-family: &quot;Helvetica Neue&quot;, sans-serif; font-size: 12px; font-weight: 200;" fill="rgb(50, 49, 63)" stroke="none" stroke-width="1px">120</text><text x="849.8461538461539" y="0" dx="0em" dy="0.95em" style="text-anchor: middle; visibility: inherit; font-family: &quot;Helvetica Neue&quot;, sans-serif; font-size: 12px; font-weight: 200;" fill="rgb(50, 49, 63)" stroke="none" stroke-width="1px">140</text><text x="956.0769230769231" y="0" dx="0em" dy="0.95em" style="text-anchor: middle; visibility: inherit; font-family: &quot;Helvetica Neue&quot;, sans-serif; font-size: 12px; font-weight: 200;" fill="rgb(50, 49, 63)" stroke="none" stroke-width="1px">160</text><text x="1062.3076923076924" y="0" dx="0em" dy="0.95em" style="text-anchor: middle; visibility: inherit; font-family: &quot;Helvetica Neue&quot;, sans-serif; font-size: 12px; font-weight: 200;" fill="rgb(50, 49, 63)" stroke="none" stroke-width="1px">180</text><text x="1168.5384615384614" y="0" dx="0em" dy="0.95em" style="text-anchor: middle; visibility: inherit; font-family: &quot;Helvetica Neue&quot;, sans-serif; font-size: 12px; font-weight: 200;" fill="rgb(50, 49, 63)" stroke="none" stroke-width="1px">200</text><text x="1274.769230769231" y="0" dx="0em" dy="0.95em" style="text-anchor: middle; visibility: inherit; font-family: &quot;Helvetica Neue&quot;, sans-serif; font-size: 12px; font-weight: 200;" fill="rgb(50, 49, 63)" stroke="none" stroke-width="1px">220</text><text x="1381" y="0" dx="0em" dy="0.95em" style="text-anchor: middle; visibility: hidden; font-family: &quot;Helvetica Neue&quot;, sans-serif; font-size: 12px; font-weight: 200;" fill="rgb(50, 49, 63)" stroke="none" stroke-width="1px">240</text></g><line x1="0" y1="0" x2="1381" y2="0" fill="rgb(0, 0, 0)" stroke="rgb(204, 204, 204)" stroke-width="1px"></line></g></g></g></g></svg>