<svg viewBox="0 0 330 200" xmlns="http://www.w3.org/2000/svg"><g><g><g><g><g><line x1="50" y1="178" x2="45" y2="178" style="visibility: inherit;" fill="rgb(0, 0, 0)" stroke="rgb(204, 204, 204)" stroke-width="1px"></line><line x1="50" y1="160.2" x2="45" y2="160.2" style="visibility: inherit;" fill="rgb(0, 0, 0)" stroke="rgb(204, 204, 204)" stroke-width="1px"></line><line x1="50" y1="142.4" x2="45" y2="142.4" style="visibility: inherit;" fill="rgb(0, 0, 0)" stroke="rgb(204, 204, 204)" stroke-width="1px"></line><line x1="50" y1="124.6" x2="45" y2="124.6" style="visibility: inherit;" fill="rgb(0, 0, 0)" stroke="rgb(204, 204, 204)" stroke-width="1px"></line><line x1="50" y1="106.8" x2="45" y2="106.8" style="visibility: inherit;" fill="rgb(0, 0, 0)" stroke="rgb(204, 204, 204)" stroke-width="1px"></line><line x1="50" y1="89" x2="45" y2="89" style="visibility: inherit;" fill="rgb(0, 0, 0)" stroke="rgb(204, 204, 204)" stroke-width="1px"></line><line x1="50" y1="71.2" x2="45" y2="71.2" style="visibility: inherit;" fill="rgb(0, 0, 0)" stroke="rgb(204, 204, 204)" stroke-width="1px"></line><line x1="50" y1="53.400000000000006" x2="45" y2="53.400000000000006" style="visibility: inherit;" fill="rgb(0, 0, 0)" stroke="rgb(204, 204, 204)" stroke-width="1px"></line><line x1="50" y1="35.599999999999994" x2="45" y2="35.599999999999994" style="visibility: inherit;" fill="rgb(0, 0, 0)" stroke="rgb(204, 204, 204)" stroke-width="1px"></line><line x1="50" y1="17.799999999999983" x2="45" y2="17.799999999999983" style="visibility: inherit;" fill="rgb(0, 0, 0)" stroke="rgb(204, 204, 204)" stroke-width="1px"></line><line x1="50" y1="0" x2="45" y2="0" style="visibility: inherit;" fill="rgb(0, 0, 0)" stroke="rgb(204, 204, 204)" stroke-width="1px"></line></g><g transform="translate(40, 0)"><text x="0" y="178" dx="0em" dy="0.3em" style="text-anchor: end; visibility: hidden; font-family: &quot;Helvetica Neue&quot;, sans-serif; font-size: 12px; font-weight: 200;" fill="rgb(50, 49, 63)" stroke="none" stroke-width="1px">-0.5</text><text x="0" y="160.2" dx="0em" dy="0.3em" style="text-anchor: end; visibility: inherit; font-family: &quot;Helvetica Neue&quot;, sans-serif; font-size: 12px; font-weight: 200;" fill="rgb(50, 49, 63)" stroke="none" stroke-width="1px">0</text><text x="0" y="142.4" dx="0em" dy="0.3em" style="text-anchor: end; visibility: hidden; font-family: &quot;Helvetica Neue&quot;, sans-serif; font-size: 12px; font-weight: 200;" fill="rgb(50, 49, 63)" stroke="none" stroke-width="1px">0.5</text><text x="0" y="124.6" dx="0em" dy="0.3em" style="text-anchor: end; visibility: inherit; font-family: &quot;Helvetica Neue&quot;, sans-serif; font-size: 12px; font-weight: 200;" fill="rgb(50, 49, 63)" stroke="none" stroke-width="1px">1</text><text x="0" y="106.8" dx="0em" dy="0.3em" style="text-anchor: end; visibility: hidden; font-family: &quot;Helvetica Neue&quot;, sans-serif; font-size: 12px; font-weight: 200;" fill="rgb(50, 49, 63)" stroke="none" stroke-width="1px">1.5</text><text x="0" y="89" dx="0em" dy="0.3em" style="text-anchor: end; visibility: inherit; font-family: &quot;Helvetica Neue&quot;, sans-serif; font-size: 12px; font-weight: 200;" fill="rgb(50, 49, 63)" stroke="none" stroke-width="1px">2</text><text x="0" y="71.2" dx="0em" dy="0.3em" style="text-anchor: end; visibility: hidden; font-family: &quot;Helvetica Neue&quot;, sans-serif; font-size: 12px; font-weight: 200;" fill="rgb(50, 49, 63)" stroke="none" stroke-width="1px">2.5</text><text x="0" y="53.400000000000006" dx="0em" dy="0.3em" style="text-anchor: end; visibility: inherit; font-family: &quot;Helvetica Neue&quot;, sans-serif; font-size: 12px; font-weight: 200;" fill="rgb(50, 49, 63)" stroke="none" stroke-width="1px">3</text><text x="0" y="35.599999999999994" dx="0em" dy="0.3em" style="text-anchor: end; visibility: hidden; font-family: &quot;Helvetica Neue&quot;, sans-serif; font-size: 12px; font-weight: 200;" fill="rgb(50, 49, 63)" stroke="none" stroke-width="1px">3.5</text><text x="0" y="17.799999999999983" dx="0em" dy="0.3em" style="text-anchor: end; visibility: inherit; font-family: &quot;Helvetica Neue&quot;, sans-serif; font-size: 12px; font-weight: 200;" fill="rgb(50, 49, 63)" stroke="none" stroke-width="1px">4</text><text x="0" y="0" dx="0em" dy="0.3em" style="text-anchor: end; visibility: hidden; font-family: &quot;Helvetica Neue&quot;, sans-serif; font-size: 12px; font-weight: 200;" fill="rgb(50, 49, 63)" stroke="none" stroke-width="1px">4.5</text></g><line x1="50" y1="0" x2="50" y2="178" fill="rgb(0, 0, 0)" stroke="rgb(204, 204, 204)" stroke-width="1px"></line></g></g><g transform="translate(50, 0)" clip-path="url(#clip_0)"><clipPath id="clip_0"><rect width="280" height="178"></rect></clipPath><g><g><g><line x1="0" y1="0" x2="0" y2="178" fill="rgb(0, 0, 0)" stroke="rgb(60, 60, 60)" stroke-width="1px" opacity="0.25"></line><line x1="21.53846153846154" y1="0" x2="21.53846153846154" y2="178" fill="rgb(0, 0, 0)" stroke="rgb(60, 60, 60)" stroke-width="1px" opacity="0.25"></line><line x1="43.07692307692308" y1="0" x2="43.07692307692308" y2="178" fill="rgb(0, 0, 0)" stroke="rgb(60, 60, 60)" stroke-width="1px" opacity="0.25"></line><line x1="64.61538461538461" y1="0" x2="64.61538461538461" y2="178" fill="rgb(0, 0, 0)" stroke="rgb(60, 60, 60)" stroke-width="1px" opacity="0.25"></line><line x1="86.15384615384616" y1="0" x2="86.15384615384616" y2="178" fill="rgb(0, 0, 0)" stroke="rgb(60, 60, 60)" stroke-width="1px" opacity="0.25"></line><line x1="107.6923076923077" y1="0" x2="107.6923076923077" y2="178" fill="rgb(0, 0, 0)" stroke="rgb(60, 60, 60)" stroke-width="1px" opacity="0.25"></line><line x1="129.23076923076923" y1="0" x2="129.23076923076923" y2="178" fill="rgb(0, 0, 0)" stroke="rgb(60, 60, 60)" stroke-width="1px" opacity="0.25"></line><line x1="150.76923076923077" y1="0" x2="150.76923076923077" y2="178" fill="rgb(0, 0, 0)" stroke="rgb(60, 60, 60)" stroke-width="1px" opacity="0.25"></line><line x1="172.30769230769232" y1="0" x2="172.30769230769232" y2="178" fill="rgb(0, 0, 0)" stroke="rgb(60, 60, 60)" stroke-width="1px" opacity="0.25"></line><line x1="193.84615384615384" y1="0" x2="193.84615384615384" y2="178" fill="rgb(0, 0, 0)" stroke="rgb(60, 60, 60)" stroke-width="1px" opacity="0.25"></line><line x1="215.3846153846154" y1="0" x2="215.3846153846154" y2="178" fill="rgb(0, 0, 0)" stroke="rgb(60, 60, 60)" stroke-width="1px" opacity="0.25"></line><line x1="236.92307692307693" y1="0" x2="236.92307692307693" y2="178" fill="rgb(0, 0, 0)" stroke="rgb(60, 60, 60)" stroke-width="1px" opacity="0.25"></line><line x1="258.46153846153845" y1="0" x2="258.46153846153845" y2="178" fill="rgb(0, 0, 0)" stroke="rgb(60, 60, 60)" stroke-width="1px" opacity="0.25"></line><line x1="280" y1="0" x2="280" y2="178" fill="rgb(0, 0, 0)" stroke="rgb(60, 60, 60)" stroke-width="1px" opacity="0.25"></line></g><g><line x1="0" y1="178" x2="280" y2="178" fill="rgb(0, 0, 0)" stroke="rgb(60, 60, 60)" stroke-width="1px" opacity="0.25"></line><line x1="0" y1="160.2" x2="280" y2="160.2" fill="rgb(0, 0, 0)" stroke="rgb(60, 60, 60)" stroke-width="1px" opacity="0.25"></line><line x1="0" y1="142.4" x2="280" y2="142.4" fill="rgb(0, 0, 0)" stroke="rgb(60, 60, 60)" stroke-width="1px" opacity="0.25"></line><line x1="0" y1="124.6" x2="280" y2="124.6" fill="rgb(0, 0, 0)" stroke="rgb(60, 60, 60)" stroke-width="1px" opacity="0.25"></line><line x1="0" y1="106.8" x2="280" y2="106.8" fill="rgb(0, 0, 0)" stroke="rgb(60, 60, 60)" stroke-width="1px" opacity="0.25"></line><line x1="0" y1="89" x2="280" y2="89" fill="rgb(0, 0, 0)" stroke="rgb(60, 60, 60)" stroke-width="1px" opacity="0.25"></line><line x1="0" y1="71.2" x2="280" y2="71.2" fill="rgb(0, 0, 0)" stroke="rgb(60, 60, 60)" stroke-width="1px" opacity="0.25"></line><line x1="0" y1="53.400000000000006" x2="280" y2="53.400000000000006" fill="rgb(0, 0, 0)" stroke="rgb(60, 60, 60)" stroke-width="1px" opacity="0.25"></line><line x1="0" y1="35.599999999999994" x2="280" y2="35.599999999999994" fill="rgb(0, 0, 0)" stroke="rgb(60, 60, 60)" stroke-width="1px" opacity="0.25"></line><line x1="0" y1="17.799999999999983" x2="280" y2="17.799999999999983" fill="rgb(0, 0, 0)" stroke="rgb(60, 60, 60)" stroke-width="1px" opacity="0.25"></line><line x1="0" y1="0" x2="280" y2="0" fill="rgb(0, 0, 0)" stroke="rgb(60, 60, 60)" stroke-width="1px" opacity="0.25"></line></g></g></g><g><g><line x1="0" y1="160.2" x2="280" y2="160.2" fill="rgb(0, 0, 0)" stroke="rgb(153, 153, 153)" stroke-width="1.5px"></line></g></g><g><g><line x1="21.53846153846154" y1="0" x2="21.53846153846154" y2="178" fill="rgb(0, 0, 0)" stroke="rgb(153, 153, 153)" stroke-width="1.5px"></line></g></g><g><g><g><g><g><path stroke="rgb(255, 112, 67)" stroke-width="2px" d="M21.53846153846154,30.985398006439226L22.615384615384617,44.65323908329009L23.692307692307693,60.111620101150194L24.76923076923077,71.91101708797848L25.846153846153847,81.65229348550648L26.923076923076923,89.87881268041986L28,96.8513714377041L29.07692307692308,102.19399716071592L30.153846153846157,106.92390890707149L31.230769230769234,110.70048933069167L32.30769230769231,113.33535737303595L33.38461538461539,115.4473979512743L34.46153846153847,116.92620282653526L35.53846153846153,118.3583968143634L36.61538461538462,120.20731462568497L37.69230769230769,121.47567675101456L38.769230769230774,122.75676342351218L39.84615384615385,123.69194618117578L40.92307692307693,124.74741510922054L42,125.9428689462381L43.07692307692308,126.78003694144185L44.15384615384615,127.63814784316452L45.23076923076923,127.9352067733747L46.30769230769231,128.18774995930966L47.38461538461539,128.5368048490319L48.46153846153846,129.20239585815028L49.53846153846154,129.68434364399283L50.61538461538461,129.93212339597463L51.69230769230769,130.01188626675724L52.76923076923077,130.5500293609421L53.84615384615385,131.3038459846059L54.92307692307692,131.85480543162487L56,132.38848583496582L57.07692307692307,132.7970552787835L58.15384615384616,133.1127450154247L59.23076923076923,133.5899589877488L60.307692307692314,134.04874133520104L61.38461538461539,134.12700440109688L62.46153846153847,133.76286127021797L63.53846153846154,133.99774511518217L64.61538461538461,134.46427128747055L65.6923076923077,134.84644596854332L66.76923076923077,135.001820351404L67.84615384615384,135.11428235635444L68.92307692307693,135.3020735756669L70,136.0164686213053L71.07692307692307,136.1947778707879L72.15384615384615,136.268158064256L73.23076923076924,136.66192785857845L74.3076923076923,136.66344792341428L75.38461538461539,137.21278175530244L76.46153846153845,137.22364934454808L77.53846153846155,137.1047259150172L78.61538461538461,137.12291201461704L79.6923076923077,136.88676451032953L80.76923076923076,137.01864226332665L81.84615384615385,137.03326238436318L82.92307692307692,136.89727925564534L84,137.0432718140226L85.07692307692307,137.26069353236804L86.15384615384616,137.44834348567753L87.23076923076923,137.5614546025302L88.3076923076923,137.79947846677933L89.38461538461537,138.15053769080066L90.46153846153847,138.40260254459514L91.53846153846153,138.40628786037524L92.61538461538461,138.25255026787613L93.69230769230768,138.33508136731444L94.76923076923077,138.34392696179185L95.84615384615385,138.15766519997857L96.92307692307692,138.4791076916119L98,138.52410978899363L99.07692307692308,138.63106264845112L100.15384615384616,138.48697587833152L101.23076923076923,138.92769325366822L102.3076923076923,139.1686042582465L103.38461538461539,139.5045536205454L104.46153846153847,139.65006027253173L105.53846153846153,139.87581310291114L106.61538461538461,139.59138585101974L107.6923076923077,139.55222012145168L108.76923076923077,139.49154794658926L109.84615384615384,139.96534546640936L110.92307692307692,140.03900336520329L112,140.31250693855557L113.07692307692308,140.310267958986L114.15384615384615,139.94578081247045L115.23076923076923,140.35837320015926L116.30769230769232,140.42666498378574L117.38461538461539,140.489898202155L118.46153846153847,140.7562744315469L119.53846153846153,140.47313467121148L120.61538461538463,140.48284124050153L121.6923076923077,140.22498200603494L122.76923076923077,140.49955657880406L123.84615384615384,140.47394594526827L124.92307692307693,140.39404332743013L126,140.47187081876947L127.07692307692308,140.37591196956367L128.15384615384616,140.67663733638602L129.23076923076923,140.64089504526424L130.30769230769232,140.63591750887852L131.3846153846154,140.71323397891416L132.46153846153845,141.06331042252L133.53846153846155,140.57447471023806L134.6153846153846,140.50048954606777L135.69230769230768,141.05290523124174L136.76923076923077,141.2582189116027L137.84615384615387,141.17524934012567L138.92307692307693,141.15769624828624L140,141.2933132750948L141.07692307692307,141.58710179943796L142.15384615384613,141.68748382937287L143.23076923076923,141.42823596603498L144.3076923076923,140.93990399722352L145.3846153846154,141.02398877551613L146.46153846153848,141.19607604271445L147.53846153846155,141.6727397342102L148.6153846153846,141.40491373417237L149.69230769230768,141.81203771994984L150.76923076923077,141.86266180852937L151.84615384615384,141.53990204918315L152.9230769230769,141.27756116740662L154,141.53161239357448L155.0769230769231,142.0769889052609L156.15384615384616,142.10026513194438L157.23076923076923,141.77814080867407L158.3076923076923,141.62395462604306L159.3846153846154,142.1040461707827L160.46153846153845,142.4626916127632L161.53846153846152,142.1782274173039L162.61538461538464,141.07326601543056L163.6923076923077,141.60445062278527L164.76923076923077,142.0304896447588L165.84615384615384,142.04765872559125L166.92307692307693,141.80059694052443L168,141.96403081179085L169.07692307692307,142.29607075071587L170.15384615384613,142.117986679174L171.23076923076925,142.06588870054335L172.30769230769232,142.0636188087812L173.3846153846154,142.47205201017564L174.46153846153845,142.5306829644901L175.53846153846155,142.23661723337545L176.6153846153846,142.23117187620386L177.69230769230768,141.91604104877223L178.76923076923075,142.45510930085607L179.84615384615387,142.547728485253L180.92307692307693,142.32898597382697L182,142.18484849729057L183.07692307692307,142.48000107644748L184.15384615384616,142.88154649280756L185.23076923076923,141.96462565149812L186.3076923076923,141.74099417141645L187.38461538461536,142.05312451131087L188.46153846153848,142.021495983642L189.53846153846155,142.52189617016415L190.6153846153846,142.2423952952534L191.6923076923077,142.06578183505L192.76923076923077,142.56924896915592L193.84615384615384,142.92347217011354L194.9230769230769,143.1779722571844L196,142.78127485516512L197.0769230769231,142.61882581474092L198.15384615384616,141.97614125109735L199.23076923076923,142.2382804804863L200.30769230769232,142.67110239111312L201.3846153846154,143.12690812255698L202.46153846153845,143.14159857455348L203.53846153846152,143.3592153932062L204.6153846153846,143.36971421631617L205.6923076923077,143.66478039021757L206.76923076923077,143.4007341980664L207.84615384615387,142.70200529812143L208.92307692307693,142.33159430932025L210,142.80993192738902L211.07692307692307,143.0727437004245L212.15384615384613,143.17478921322802L213.23076923076923,143.09596902316082L214.3076923076923,143.02590780130188L215.3846153846154,142.99249542159535L216.46153846153848,143.15457454444584L217.53846153846155,143.17897589636814L218.6153846153846,142.91053064604384L219.69230769230768,142.70100508653988L220.76923076923077,142.80531452252788L221.84615384615384,142.94724194380237L222.9230769230769,142.8568243513858L224,143.07822293343278L225.0769230769231,143.044774431599L226.15384615384616,143.53329264319706L227.23076923076923,143.74806802747707L228.3076923076923,143.51854006575383L229.3846153846154,143.45955350951454L230.46153846153845,143.4461048302418L231.53846153846152,142.94996647938288L232.61538461538464,142.71268789353488L233.6923076923077,142.82343333472323L234.76923076923077,142.8127515835137L235.84615384615384,142.60440101877276L236.92307692307693,142.98194917831077L238,143.13715209956916L239.07692307692307,142.9061977100131L240.15384615384613,143.30124007414324L241.23076923076925,143.61287748068895L242.30769230769232,143.54775354892212L243.3846153846154,143.49887928980706L244.46153846153845,143.56823359977076L245.53846153846155,143.31361140162272L246.6153846153846,143.1790480217369L247.69230769230768,143.49438518530317L248.76923076923075,143.30477924732082L249.84615384615387,143.37269493334122L250.92307692307693,143.43021986241715L252,143.74715586993443L253.07692307692307,143.5071972637972L254.15384615384616,144.03859953579908" style="fill: none;" fill="none"></path></g></g></g></g><g opacity="0.2"><g><g><g><path stroke="rgb(255, 112, 67)" stroke-width="2px" d="M21.53846153846154,30.985398006439226L22.615384615384617,52.85394372940064L23.692307692307693,74.9516658782959L24.76923076923077,85.78710794448853L25.846153846153847,94.37050395011902L26.923076923076923,101.25905027389526L28,106.82224202156067L29.07692307692308,109.9835967540741L30.153846153846157,113.89960999488831L31.230769230769234,116.30827112197876L32.30769230769231,117.26376137733459L33.38461538461539,118.60396518707276L34.46153846153847,119.13958158493043L35.53846153846153,120.50388197898864L36.61538461538462,122.97851800918579L37.69230769230769,123.3773253917694L38.769230769230774,124.67785131931305L39.84615384615385,125.0944828748703L40.92307692307693,126.3304577112198L42,127.73594043254852L43.07692307692308,128.03574302196503L44.15384615384615,128.92528595924378L45.23076923076923,128.3807893037796L46.30769230769231,128.5665617465973L47.38461538461539,129.06038470268248L48.46153846153846,130.20077953338622L49.53846153846154,130.40726408958434L50.61538461538461,130.30379264354707L51.69230769230769,130.1315304994583L52.76923076923077,131.35724370479585L53.84615384615385,132.43457067012787L54.92307692307692,132.68124449253082L56,133.1890063762665L57.07692307692307,133.40990941524507L58.15384615384616,133.58627960681915L59.23076923076923,134.30577993392944L60.307692307692314,134.7369148492813L61.38461538461539,134.24439899921418L62.46153846153847,133.21664657592774L63.53846153846154,134.35007088184358L64.61538461538461,135.16406054496764L65.6923076923077,135.41970798969268L66.76923076923077,135.2348819255829L67.84615384615384,135.2829753637314L68.92307692307693,135.5837604045868L70,137.08806118965148L71.07692307692307,136.4622417449951L72.15384615384615,136.37822835445405L73.23076923076924,137.25258255004883L74.3076923076923,136.66572802066804L75.38461538461539,138.03678250312805L76.46153846153845,137.23995072841643L77.53846153846155,136.92634077072142L78.61538461538461,137.15019116401672L79.6923076923077,136.5325432538986L80.76923076923076,137.21645889282226L81.84615384615385,137.05519256591796L82.92307692307692,136.69330456256867L84,137.26226065158843L85.07692307692307,137.58682610988618L86.15384615384616,137.72981841564177L87.23076923076923,137.73112127780914L88.3076923076923,138.15651426315307L89.38461538461537,138.67712652683258L90.46153846153847,138.78069982528686L91.53846153846153,138.4118158340454L92.61538461538461,138.0219438791275L93.69230769230768,138.45887801647186L94.76923076923077,138.357195353508L95.84615384615385,137.8782725572586L96.92307692307692,138.9612714290619L98,138.59161293506622L99.07692307692308,138.79149193763732L100.15384615384616,138.27084572315215L101.23076923076923,139.58876931667328L102.3076923076923,139.52997076511383L103.38461538461539,140.00847766399383L104.46153846153847,139.86832025051118L105.53846153846153,140.21444234848022L106.61538461538461,139.16474497318268L107.6923076923077,139.49347152709962L108.76923076923077,139.40053968429567L109.84615384615384,140.67604174613953L110.92307692307692,140.14949021339416L112,140.72276229858397L113.07692307692308,140.30690948963166L114.15384615384615,139.39905009269714L115.23076923076923,140.9772617816925L116.30769230769232,140.52910265922546L117.38461538461539,140.58474802970886L118.46153846153847,141.15583877563478L119.53846153846153,140.0484250307083L120.61538461538463,140.49740109443664L121.6923076923077,139.83819315433502L122.76923076923077,140.91141843795776L123.84615384615384,140.4355299949646L124.92307692307693,140.27418940067292L126,140.5886120557785L127.07692307692308,140.23197369575502L128.15384615384616,141.12772538661957L129.23076923076923,140.58728160858155L130.30769230769232,140.62845120429992L131.3846153846154,140.82920868396758L132.46153846153845,141.58842508792878L133.53846153846155,139.8412211418152L134.6153846153846,140.3895117998123L135.69230769230768,141.8815287590027L136.76923076923077,141.56618943214417L137.84615384615387,141.05079498291016L138.92307692307693,141.13136661052704L140,141.49673881530762L141.07692307692307,142.02778458595276L142.15384615384613,141.8380568742752L143.23076923076923,141.03936417102813L144.3076923076923,140.20740604400635L145.3846153846154,141.150115942955L146.46153846153848,141.45420694351196L147.53846153846155,142.38773527145386L148.6153846153846,141.0031747341156L149.69230769230768,142.42272369861604L150.76923076923077,141.93859794139863L151.84615384615384,141.05576241016388L152.9230769230769,140.8840498447418L154,141.91268923282624L155.0769230769231,142.89505367279054L156.15384615384616,142.1351794719696L157.23076923076923,141.29495432376862L158.3076923076923,141.39267535209655L159.3846153846154,142.82418348789216L160.46153846153845,143.00065977573394L161.53846153846152,141.751531124115L162.61538461538464,139.41582391262054L163.6923076923077,142.4012275338173L164.76923076923077,142.66954817771912L165.84615384615384,142.07341234683992L166.92307692307693,141.4300042629242L168,142.20918161869048L169.07692307692307,142.7941306591034L170.15384615384613,141.85086057186126L171.23076923076925,141.98774173259736L172.30769230769232,142.060213971138L173.3846153846154,143.0847018122673L174.46153846153845,142.61862939596176L175.53846153846155,141.7955186367035L176.6153846153846,142.22300384044647L177.69230769230768,141.4433448076248L178.76923076923075,143.2637116789818L179.84615384615387,142.68665726184844L180.92307692307693,142.00087220668792L182,141.96864228248597L183.07692307692307,142.9227299451828L184.15384615384616,143.4838646173477L185.23076923076923,140.589244389534L186.3076923076923,141.40554695129396L187.38461538461536,142.5213200211525L188.46153846153848,141.97405319213868L189.53846153846155,143.27249644994737L190.6153846153846,141.82314398288727L191.6923076923077,141.80086164474488L192.76923076923077,143.32444967031478L193.84615384615384,143.45480697155L194.9230769230769,143.55972238779069L196,142.18622875213623L197.0769230769231,142.37515225410462L198.15384615384616,141.01211440563202L199.23076923076923,142.6314893245697L200.30769230769232,143.3203352570534L201.3846153846154,143.81061671972276L202.46153846153845,143.1636342525482L203.53846153846152,143.6856406211853L204.6153846153846,143.38546245098115L205.6923076923077,144.10737965106964L206.76923076923077,143.00466490983962L207.84615384615387,141.65391194820404L208.92307692307693,141.77597782611846L210,143.52743835449218L211.07692307692307,143.46696135997772L212.15384615384613,143.32785748243333L213.23076923076923,142.97773873806L214.3076923076923,142.9208159685135L215.3846153846154,142.94237685203552L216.46153846153848,143.3976932287216L217.53846153846155,143.21557792425156L218.6153846153846,142.5078627705574L219.69230769230768,142.38671674728394L220.76923076923077,142.96177867650985L221.84615384615384,143.1601330757141L222.9230769230769,142.72119796276093L224,143.4103208065033L225.0769230769231,142.99460167884826L226.15384615384616,144.26606996059417L227.23076923076923,144.0702311038971L228.3076923076923,143.17424812316895L229.3846153846154,143.37107367515563L230.46153846153845,143.4259318113327L231.53846153846152,142.2057589530945L232.61538461538464,142.35677001476287L233.6923076923077,142.98955149650573L234.76923076923077,142.79672895669938L235.84615384615384,142.2918751716614L236.92307692307693,143.5482714176178L238,143.36995648145677L239.07692307692307,142.559766125679L240.15384615384613,143.89380362033845L241.23076923076925,144.0803335905075L242.30769230769232,143.4500676512718L243.3846153846154,143.42556790113449L244.46153846153845,143.67226506471633L245.53846153846155,142.93167810440065L246.6153846153846,142.9772029519081L247.69230769230768,143.9673909306526L248.76923076923075,143.02037034034728L249.84615384615387,143.47456846237182L250.92307692307693,143.51650725603105L252,144.22255988121032L253.07692307692307,143.14725935459137L254.15384615384616,144.8357029438019" style="fill: none;" fill="none"></path></g></g></g></g></g><g><g opacity="0.949849"><span fill="rgb(0, 0, 0)" stroke="none" stroke-width="1px">Alt + Scroll to Zoom</span></g></g></g><g transform="translate(50, 178)" clip-path="url(#clip_1)"><clipPath id="clip_1"><rect width="280" height="22"></rect></clipPath><g><g><line x1="0" y1="0" x2="0" y2="5" style="visibility: inherit;" fill="rgb(0, 0, 0)" stroke="rgb(204, 204, 204)" stroke-width="1px"></line><line x1="21.53846153846154" y1="0" x2="21.53846153846154" y2="5" style="visibility: inherit;" fill="rgb(0, 0, 0)" stroke="rgb(204, 204, 204)" stroke-width="1px"></line><line x1="43.07692307692308" y1="0" x2="43.07692307692308" y2="5" style="visibility: inherit;" fill="rgb(0, 0, 0)" stroke="rgb(204, 204, 204)" stroke-width="1px"></line><line x1="64.61538461538461" y1="0" x2="64.61538461538461" y2="5" style="visibility: inherit;" fill="rgb(0, 0, 0)" stroke="rgb(204, 204, 204)" stroke-width="1px"></line><line x1="86.15384615384616" y1="0" x2="86.15384615384616" y2="5" style="visibility: inherit;" fill="rgb(0, 0, 0)" stroke="rgb(204, 204, 204)" stroke-width="1px"></line><line x1="107.6923076923077" y1="0" x2="107.6923076923077" y2="5" style="visibility: inherit;" fill="rgb(0, 0, 0)" stroke="rgb(204, 204, 204)" stroke-width="1px"></line><line x1="129.23076923076923" y1="0" x2="129.23076923076923" y2="5" style="visibility: inherit;" fill="rgb(0, 0, 0)" stroke="rgb(204, 204, 204)" stroke-width="1px"></line><line x1="150.76923076923077" y1="0" x2="150.76923076923077" y2="5" style="visibility: inherit;" fill="rgb(0, 0, 0)" stroke="rgb(204, 204, 204)" stroke-width="1px"></line><line x1="172.30769230769232" y1="0" x2="172.30769230769232" y2="5" style="visibility: inherit;" fill="rgb(0, 0, 0)" stroke="rgb(204, 204, 204)" stroke-width="1px"></line><line x1="193.84615384615384" y1="0" x2="193.84615384615384" y2="5" style="visibility: inherit;" fill="rgb(0, 0, 0)" stroke="rgb(204, 204, 204)" stroke-width="1px"></line><line x1="215.3846153846154" y1="0" x2="215.3846153846154" y2="5" style="visibility: inherit;" fill="rgb(0, 0, 0)" stroke="rgb(204, 204, 204)" stroke-width="1px"></line><line x1="236.92307692307693" y1="0" x2="236.92307692307693" y2="5" style="visibility: inherit;" fill="rgb(0, 0, 0)" stroke="rgb(204, 204, 204)" stroke-width="1px"></line><line x1="258.46153846153845" y1="0" x2="258.46153846153845" y2="5" style="visibility: inherit;" fill="rgb(0, 0, 0)" stroke="rgb(204, 204, 204)" stroke-width="1px"></line><line x1="280" y1="0" x2="280" y2="5" style="visibility: inherit;" fill="rgb(0, 0, 0)" stroke="rgb(204, 204, 204)" stroke-width="1px"></line></g><g transform="translate(0, 8)"><text x="0" y="0" dx="0em" dy="0.95em" style="text-anchor: middle; visibility: hidden; font-family: &quot;Helvetica Neue&quot;, sans-serif; font-size: 12px; font-weight: 200;" fill="rgb(50, 49, 63)" stroke="none" stroke-width="1px">-20</text><text x="21.53846153846154" y="0" dx="0em" dy="0.95em" style="text-anchor: middle; visibility: inherit; font-family: &quot;Helvetica Neue&quot;, sans-serif; font-size: 12px; font-weight: 200;" fill="rgb(50, 49, 63)" stroke="none" stroke-width="1px">0</text><text x="43.07692307692308" y="0" dx="0em" dy="0.95em" style="text-anchor: middle; visibility: hidden; font-family: &quot;Helvetica Neue&quot;, sans-serif; font-size: 12px; font-weight: 200;" fill="rgb(50, 49, 63)" stroke="none" stroke-width="1px">20</text><text x="64.61538461538461" y="0" dx="0em" dy="0.95em" style="text-anchor: middle; visibility: inherit; font-family: &quot;Helvetica Neue&quot;, sans-serif; font-size: 12px; font-weight: 200;" fill="rgb(50, 49, 63)" stroke="none" stroke-width="1px">40</text><text x="86.15384615384616" y="0" dx="0em" dy="0.95em" style="text-anchor: middle; visibility: hidden; font-family: &quot;Helvetica Neue&quot;, sans-serif; font-size: 12px; font-weight: 200;" fill="rgb(50, 49, 63)" stroke="none" stroke-width="1px">60</text><text x="107.6923076923077" y="0" dx="0em" dy="0.95em" style="text-anchor: middle; visibility: inherit; font-family: &quot;Helvetica Neue&quot;, sans-serif; font-size: 12px; font-weight: 200;" fill="rgb(50, 49, 63)" stroke="none" stroke-width="1px">80</text><text x="129.23076923076923" y="0" dx="0em" dy="0.95em" style="text-anchor: middle; visibility: hidden; font-family: &quot;Helvetica Neue&quot;, sans-serif; font-size: 12px; font-weight: 200;" fill="rgb(50, 49, 63)" stroke="none" stroke-width="1px">100</text><text x="150.76923076923077" y="0" dx="0em" dy="0.95em" style="text-anchor: middle; visibility: inherit; font-family: &quot;Helvetica Neue&quot;, sans-serif; font-size: 12px; font-weight: 200;" fill="rgb(50, 49, 63)" stroke="none" stroke-width="1px">120</text><text x="172.30769230769232" y="0" dx="0em" dy="0.95em" style="text-anchor: middle; visibility: hidden; font-family: &quot;Helvetica Neue&quot;, sans-serif; font-size: 12px; font-weight: 200;" fill="rgb(50, 49, 63)" stroke="none" stroke-width="1px">140</text><text x="193.84615384615384" y="0" dx="0em" dy="0.95em" style="text-anchor: middle; visibility: inherit; font-family: &quot;Helvetica Neue&quot;, sans-serif; font-size: 12px; font-weight: 200;" fill="rgb(50, 49, 63)" stroke="none" stroke-width="1px">160</text><text x="215.3846153846154" y="0" dx="0em" dy="0.95em" style="text-anchor: middle; visibility: hidden; font-family: &quot;Helvetica Neue&quot;, sans-serif; font-size: 12px; font-weight: 200;" fill="rgb(50, 49, 63)" stroke="none" stroke-width="1px">180</text><text x="236.92307692307693" y="0" dx="0em" dy="0.95em" style="text-anchor: middle; visibility: inherit; font-family: &quot;Helvetica Neue&quot;, sans-serif; font-size: 12px; font-weight: 200;" fill="rgb(50, 49, 63)" stroke="none" stroke-width="1px">200</text><text x="258.46153846153845" y="0" dx="0em" dy="0.95em" style="text-anchor: middle; visibility: hidden; font-family: &quot;Helvetica Neue&quot;, sans-serif; font-size: 12px; font-weight: 200;" fill="rgb(50, 49, 63)" stroke="none" stroke-width="1px">220</text><text x="280" y="0" dx="0em" dy="0.95em" style="text-anchor: middle; visibility: hidden; font-family: &quot;Helvetica Neue&quot;, sans-serif; font-size: 12px; font-weight: 200;" fill="rgb(50, 49, 63)" stroke="none" stroke-width="1px">240</text></g><line x1="0" y1="0" x2="280" y2="0" fill="rgb(0, 0, 0)" stroke="rgb(204, 204, 204)" stroke-width="1px"></line></g></g></g></g></svg>