<svg viewBox="0 0 330 200" xmlns="http://www.w3.org/2000/svg"><g><g><g><g><g><line x1="50" y1="178" x2="45" y2="178" style="visibility: inherit;" fill="rgb(0, 0, 0)" stroke="rgb(204, 204, 204)" stroke-width="1px"></line><line x1="50" y1="163.16666666666666" x2="45" y2="163.16666666666666" style="visibility: inherit;" fill="rgb(0, 0, 0)" stroke="rgb(204, 204, 204)" stroke-width="1px"></line><line x1="50" y1="148.33333333333334" x2="45" y2="148.33333333333334" style="visibility: inherit;" fill="rgb(0, 0, 0)" stroke="rgb(204, 204, 204)" stroke-width="1px"></line><line x1="50" y1="133.5" x2="45" y2="133.5" style="visibility: inherit;" fill="rgb(0, 0, 0)" stroke="rgb(204, 204, 204)" stroke-width="1px"></line><line x1="50" y1="118.66666666666667" x2="45" y2="118.66666666666667" style="visibility: inherit;" fill="rgb(0, 0, 0)" stroke="rgb(204, 204, 204)" stroke-width="1px"></line><line x1="50" y1="103.83333333333334" x2="45" y2="103.83333333333334" style="visibility: inherit;" fill="rgb(0, 0, 0)" stroke="rgb(204, 204, 204)" stroke-width="1px"></line><line x1="50" y1="89.00000000000001" x2="45" y2="89.00000000000001" style="visibility: inherit;" fill="rgb(0, 0, 0)" stroke="rgb(204, 204, 204)" stroke-width="1px"></line><line x1="50" y1="74.16666666666669" x2="45" y2="74.16666666666669" style="visibility: inherit;" fill="rgb(0, 0, 0)" stroke="rgb(204, 204, 204)" stroke-width="1px"></line><line x1="50" y1="59.33333333333336" x2="45" y2="59.33333333333336" style="visibility: inherit;" fill="rgb(0, 0, 0)" stroke="rgb(204, 204, 204)" stroke-width="1px"></line><line x1="50" y1="44.50000000000003" x2="45" y2="44.50000000000003" style="visibility: inherit;" fill="rgb(0, 0, 0)" stroke="rgb(204, 204, 204)" stroke-width="1px"></line><line x1="50" y1="29.666666666666686" x2="45" y2="29.666666666666686" style="visibility: inherit;" fill="rgb(0, 0, 0)" stroke="rgb(204, 204, 204)" stroke-width="1px"></line><line x1="50" y1="14.833333333333343" x2="45" y2="14.833333333333343" style="visibility: inherit;" fill="rgb(0, 0, 0)" stroke="rgb(204, 204, 204)" stroke-width="1px"></line><line x1="50" y1="0" x2="45" y2="0" style="visibility: inherit;" fill="rgb(0, 0, 0)" stroke="rgb(204, 204, 204)" stroke-width="1px"></line></g><g transform="translate(40, 0)"><text x="0" y="178" dx="0em" dy="0.3em" style="text-anchor: end; visibility: hidden; font-family: &quot;Helvetica Neue&quot;, sans-serif; font-size: 12px; font-weight: 200;" fill="rgb(50, 49, 63)" stroke="none" stroke-width="1px">-0.1</text><text x="0" y="163.16666666666666" dx="0em" dy="0.3em" style="text-anchor: end; visibility: inherit; font-family: &quot;Helvetica Neue&quot;, sans-serif; font-size: 12px; font-weight: 200;" fill="rgb(50, 49, 63)" stroke="none" stroke-width="1px">0</text><text x="0" y="148.33333333333334" dx="0em" dy="0.3em" style="text-anchor: end; visibility: hidden; font-family: &quot;Helvetica Neue&quot;, sans-serif; font-size: 12px; font-weight: 200;" fill="rgb(50, 49, 63)" stroke="none" stroke-width="1px">0.1</text><text x="0" y="133.5" dx="0em" dy="0.3em" style="text-anchor: end; visibility: inherit; font-family: &quot;Helvetica Neue&quot;, sans-serif; font-size: 12px; font-weight: 200;" fill="rgb(50, 49, 63)" stroke="none" stroke-width="1px">0.2</text><text x="0" y="118.66666666666667" dx="0em" dy="0.3em" style="text-anchor: end; visibility: hidden; font-family: &quot;Helvetica Neue&quot;, sans-serif; font-size: 12px; font-weight: 200;" fill="rgb(50, 49, 63)" stroke="none" stroke-width="1px">0.3</text><text x="0" y="103.83333333333334" dx="0em" dy="0.3em" style="text-anchor: end; visibility: inherit; font-family: &quot;Helvetica Neue&quot;, sans-serif; font-size: 12px; font-weight: 200;" fill="rgb(50, 49, 63)" stroke="none" stroke-width="1px">0.4</text><text x="0" y="89.00000000000001" dx="0em" dy="0.3em" style="text-anchor: end; visibility: hidden; font-family: &quot;Helvetica Neue&quot;, sans-serif; font-size: 12px; font-weight: 200;" fill="rgb(50, 49, 63)" stroke="none" stroke-width="1px">0.5</text><text x="0" y="74.16666666666669" dx="0em" dy="0.3em" style="text-anchor: end; visibility: inherit; font-family: &quot;Helvetica Neue&quot;, sans-serif; font-size: 12px; font-weight: 200;" fill="rgb(50, 49, 63)" stroke="none" stroke-width="1px">0.6</text><text x="0" y="59.33333333333336" dx="0em" dy="0.3em" style="text-anchor: end; visibility: hidden; font-family: &quot;Helvetica Neue&quot;, sans-serif; font-size: 12px; font-weight: 200;" fill="rgb(50, 49, 63)" stroke="none" stroke-width="1px">0.7</text><text x="0" y="44.50000000000003" dx="0em" dy="0.3em" style="text-anchor: end; visibility: inherit; font-family: &quot;Helvetica Neue&quot;, sans-serif; font-size: 12px; font-weight: 200;" fill="rgb(50, 49, 63)" stroke="none" stroke-width="1px">0.8</text><text x="0" y="29.666666666666686" dx="0em" dy="0.3em" style="text-anchor: end; visibility: hidden; font-family: &quot;Helvetica Neue&quot;, sans-serif; font-size: 12px; font-weight: 200;" fill="rgb(50, 49, 63)" stroke="none" stroke-width="1px">0.9</text><text x="0" y="14.833333333333343" dx="0em" dy="0.3em" style="text-anchor: end; visibility: inherit; font-family: &quot;Helvetica Neue&quot;, sans-serif; font-size: 12px; font-weight: 200;" fill="rgb(50, 49, 63)" stroke="none" stroke-width="1px">1</text><text x="0" y="0" dx="0em" dy="0.3em" style="text-anchor: end; visibility: hidden; font-family: &quot;Helvetica Neue&quot;, sans-serif; font-size: 12px; font-weight: 200;" fill="rgb(50, 49, 63)" stroke="none" stroke-width="1px">1.1</text></g><line x1="50" y1="0" x2="50" y2="178" fill="rgb(0, 0, 0)" stroke="rgb(204, 204, 204)" stroke-width="1px"></line></g></g><g transform="translate(50, 0)" clip-path="url(#clip_0)"><clipPath id="clip_0"><rect width="280" height="178"></rect></clipPath><g><g><g><line x1="0" y1="0" x2="0" y2="178" fill="rgb(0, 0, 0)" stroke="rgb(60, 60, 60)" stroke-width="1px" opacity="0.25"></line><line x1="21.53846153846154" y1="0" x2="21.53846153846154" y2="178" fill="rgb(0, 0, 0)" stroke="rgb(60, 60, 60)" stroke-width="1px" opacity="0.25"></line><line x1="43.07692307692308" y1="0" x2="43.07692307692308" y2="178" fill="rgb(0, 0, 0)" stroke="rgb(60, 60, 60)" stroke-width="1px" opacity="0.25"></line><line x1="64.61538461538461" y1="0" x2="64.61538461538461" y2="178" fill="rgb(0, 0, 0)" stroke="rgb(60, 60, 60)" stroke-width="1px" opacity="0.25"></line><line x1="86.15384615384616" y1="0" x2="86.15384615384616" y2="178" fill="rgb(0, 0, 0)" stroke="rgb(60, 60, 60)" stroke-width="1px" opacity="0.25"></line><line x1="107.6923076923077" y1="0" x2="107.6923076923077" y2="178" fill="rgb(0, 0, 0)" stroke="rgb(60, 60, 60)" stroke-width="1px" opacity="0.25"></line><line x1="129.23076923076923" y1="0" x2="129.23076923076923" y2="178" fill="rgb(0, 0, 0)" stroke="rgb(60, 60, 60)" stroke-width="1px" opacity="0.25"></line><line x1="150.76923076923077" y1="0" x2="150.76923076923077" y2="178" fill="rgb(0, 0, 0)" stroke="rgb(60, 60, 60)" stroke-width="1px" opacity="0.25"></line><line x1="172.30769230769232" y1="0" x2="172.30769230769232" y2="178" fill="rgb(0, 0, 0)" stroke="rgb(60, 60, 60)" stroke-width="1px" opacity="0.25"></line><line x1="193.84615384615384" y1="0" x2="193.84615384615384" y2="178" fill="rgb(0, 0, 0)" stroke="rgb(60, 60, 60)" stroke-width="1px" opacity="0.25"></line><line x1="215.3846153846154" y1="0" x2="215.3846153846154" y2="178" fill="rgb(0, 0, 0)" stroke="rgb(60, 60, 60)" stroke-width="1px" opacity="0.25"></line><line x1="236.92307692307693" y1="0" x2="236.92307692307693" y2="178" fill="rgb(0, 0, 0)" stroke="rgb(60, 60, 60)" stroke-width="1px" opacity="0.25"></line><line x1="258.46153846153845" y1="0" x2="258.46153846153845" y2="178" fill="rgb(0, 0, 0)" stroke="rgb(60, 60, 60)" stroke-width="1px" opacity="0.25"></line><line x1="280" y1="0" x2="280" y2="178" fill="rgb(0, 0, 0)" stroke="rgb(60, 60, 60)" stroke-width="1px" opacity="0.25"></line></g><g><line x1="0" y1="178" x2="280" y2="178" fill="rgb(0, 0, 0)" stroke="rgb(60, 60, 60)" stroke-width="1px" opacity="0.25"></line><line x1="0" y1="163.16666666666666" x2="280" y2="163.16666666666666" fill="rgb(0, 0, 0)" stroke="rgb(60, 60, 60)" stroke-width="1px" opacity="0.25"></line><line x1="0" y1="148.33333333333334" x2="280" y2="148.33333333333334" fill="rgb(0, 0, 0)" stroke="rgb(60, 60, 60)" stroke-width="1px" opacity="0.25"></line><line x1="0" y1="133.5" x2="280" y2="133.5" fill="rgb(0, 0, 0)" stroke="rgb(60, 60, 60)" stroke-width="1px" opacity="0.25"></line><line x1="0" y1="118.66666666666667" x2="280" y2="118.66666666666667" fill="rgb(0, 0, 0)" stroke="rgb(60, 60, 60)" stroke-width="1px" opacity="0.25"></line><line x1="0" y1="103.83333333333334" x2="280" y2="103.83333333333334" fill="rgb(0, 0, 0)" stroke="rgb(60, 60, 60)" stroke-width="1px" opacity="0.25"></line><line x1="0" y1="89.00000000000001" x2="280" y2="89.00000000000001" fill="rgb(0, 0, 0)" stroke="rgb(60, 60, 60)" stroke-width="1px" opacity="0.25"></line><line x1="0" y1="74.16666666666669" x2="280" y2="74.16666666666669" fill="rgb(0, 0, 0)" stroke="rgb(60, 60, 60)" stroke-width="1px" opacity="0.25"></line><line x1="0" y1="59.33333333333336" x2="280" y2="59.33333333333336" fill="rgb(0, 0, 0)" stroke="rgb(60, 60, 60)" stroke-width="1px" opacity="0.25"></line><line x1="0" y1="44.50000000000003" x2="280" y2="44.50000000000003" fill="rgb(0, 0, 0)" stroke="rgb(60, 60, 60)" stroke-width="1px" opacity="0.25"></line><line x1="0" y1="29.666666666666686" x2="280" y2="29.666666666666686" fill="rgb(0, 0, 0)" stroke="rgb(60, 60, 60)" stroke-width="1px" opacity="0.25"></line><line x1="0" y1="14.833333333333343" x2="280" y2="14.833333333333343" fill="rgb(0, 0, 0)" stroke="rgb(60, 60, 60)" stroke-width="1px" opacity="0.25"></line><line x1="0" y1="0" x2="280" y2="0" fill="rgb(0, 0, 0)" stroke="rgb(60, 60, 60)" stroke-width="1px" opacity="0.25"></line></g></g></g><g><g><line x1="0" y1="163.16666666666666" x2="280" y2="163.16666666666666" fill="rgb(0, 0, 0)" stroke="rgb(153, 153, 153)" stroke-width="1.5px"></line></g></g><g><g><line x1="21.53846153846154" y1="0" x2="21.53846153846154" y2="178" fill="rgb(0, 0, 0)" stroke="rgb(153, 153, 153)" stroke-width="1.5px"></line></g></g><g><g><g><g><g><path stroke="rgb(255, 112, 67)" stroke-width="2px" d="M21.53846153846154,153.21747921655577L22.615384615384617,135.86293211610368L23.692307692307693,120.56728839159621L24.76923076923077,109.26082915550684L25.846153846153847,98.98245573962609L26.923076923076923,90.56902336872112L28,83.63302147421972L29.07692307692308,78.25472202616486L30.153846153846157,73.4719799091665L31.230769230769234,69.58993047288931L32.30769230769231,66.94898335560451L33.38461538461539,64.55476104887016L34.46153846153847,63.018926782204005L35.53846153846153,61.53146486377031L36.61538461538462,59.70467471562881L37.69230769230769,58.31963466619257L38.769230769230774,56.837531609870624L39.84615384615385,55.966521600518504L40.92307692307693,54.8409550123869L42,53.50838623048686L43.07692307692308,52.73299589066376L44.15384615384615,51.67081406563618L45.23076923076923,51.55208120466449L46.30769230769231,51.2155294309445L47.38461538461539,50.832704736612655L48.46153846153846,50.10856580024104L49.53846153846154,49.70423228257343L50.61538461538461,49.50384109457863L51.69230769230769,49.17859303038176L52.76923076923077,48.59753669219879L53.84615384615385,47.62782948417134L54.92307692307692,47.1304225120609L56,46.45210064948981L57.07692307692307,45.984809505473635L58.15384615384616,45.746643460191535L59.23076923076923,45.22386614522381L60.307692307692314,44.81372288633506L61.38461538461539,44.73044165601675L62.46153846153847,45.253304351324516L63.53846153846154,44.982130925861924L64.61538461538461,44.469698206773444L65.6923076923077,44.03561268002227L66.76923076923077,43.94399589148762L67.84615384615384,43.93726425477311L68.92307692307693,43.788509963587046L70,42.945531820384815L71.07692307692307,42.62666887548059L72.15384615384615,42.61624524497856L73.23076923076924,42.24217298926729L74.3076923076923,42.1262661177019L75.38461538461539,41.54418860821244L76.46153846153845,41.580849593569866L77.53846153846155,41.7716807121181L78.61538461538461,41.747493878651284L79.6923076923077,41.799309628595125L80.76923076923076,41.70377318306117L81.84615384615385,41.53188502933588L82.92307692307692,41.74230197357741L84,41.65147917640772L85.07692307692307,41.24122702979582L86.15384615384616,41.06743339640025L87.23076923076923,40.981246630005785L88.3076923076923,40.634074147335355L89.38461538461537,40.26296593494712L90.46153846153847,40.016181789323724L91.53846153846153,40.030916024735575L92.61538461538461,40.28697855243547L93.69230769230768,40.11500662348348L94.76923076923077,40.114330143421995L95.84615384615385,40.37320585093309L96.92307692307692,39.97981906160558L98,39.9186513198903L99.07692307692308,39.82165262938486L100.15384615384616,39.817721656010235L101.23076923076923,39.34503831727051L102.3076923076923,39.0915773367648L103.38461538461539,38.88523250753275L104.46153846153847,38.74333619635058L105.53846153846153,38.37479405936057L106.61538461538461,38.7385633548287L107.6923076923077,38.932705713919034L108.76923076923077,38.874326797492046L109.84615384615384,38.381030765473895L110.92307692307692,38.41066612837716L112,38.042536318528704L113.07692307692308,37.90607569628639L114.15384615384615,38.288497809650636L115.23076923076923,37.85466904088781L116.30769230769232,37.75114669786848L117.38461538461539,37.7131525102474L118.46153846153847,37.46122342486487L119.53846153846153,37.72009621941629L120.61538461538463,37.57995593677114L121.6923076923077,37.881782794774495L122.76923076923077,37.67093807743845L123.84615384615384,37.701206165275124L124.92307692307693,37.83393684092431L126,37.8110650324619L127.07692307692308,37.84558038376548L128.15384615384616,37.4442032762137L129.23076923076923,37.44456919358771L130.30769230769232,37.58347424860759L131.3846153846154,37.516072167928826L132.46153846153845,37.05354460118758L133.53846153846155,37.487548534305205L134.6153846153846,37.54896380756179L135.69230769230768,36.89238544853856L136.76923076923077,36.619034524077165L137.84615384615387,36.774603610424606L138.92307692307693,36.64484229397081L140,36.44638941314602L141.07692307692307,36.309228271008266L142.15384615384613,36.3113488493924L143.23076923076923,36.535723964685076L144.3076923076923,37.194945566046556L145.3846153846154,37.11412043105861L146.46153846153848,36.914880236375126L147.53846153846155,36.2888325375643L148.6153846153846,36.588542027612135L149.69230769230768,36.03876137137789L150.76923076923077,36.028472618661596L151.84615384615384,36.251431939841694L152.9230769230769,36.50580362350229L154,36.32075757903149L155.0769230769231,35.691166761253044L156.15384615384616,35.68123034799123L157.23076923076923,36.01896735924896L158.3076923076923,36.348235461503776L159.3846153846154,35.7558919271174L160.46153846153845,35.29797912917596L161.53846153846152,35.48752640057842L162.61538461538464,36.57205683213019L163.6923076923077,36.05298947227922L164.76923076923077,35.65110198815421L165.84615384615384,35.60895304775093L166.92307692307693,36.18664413827173L168,35.92424853327384L169.07692307692307,35.471350747441335L170.15384615384613,35.60963878518049L171.23076923076925,35.72276063056216L172.30769230769232,35.59767999226705L173.3846153846154,35.233200991003855L174.46153846153845,35.15922889938901L175.53846153846155,35.45251469908723L176.6153846153846,35.43553243338209L177.69230769230768,35.82331017410243L178.76923076923075,35.21180418186677L179.84615384615387,35.122271595716256L180.92307692307693,35.48460855781224L182,35.683921321426965L183.07692307692307,35.26685637485693L184.15384615384616,34.865872293224214L185.23076923076923,35.825212949222475L186.3076923076923,35.75562825622532L187.38461538461536,35.50886408580766L188.46153846153848,35.60199776546219L189.53846153846155,35.06092732303975L190.6153846153846,35.230729030491744L191.6923076923077,35.62807047779671L192.76923076923077,35.01024310041652L193.84615384615384,34.49483136484537L194.9230769230769,34.37250826447911L196,34.884005445379245L197.0769230769231,35.01603942203815L198.15384615384616,35.77059791736781L199.23076923076923,35.4454882279216L200.30769230769232,35.01526003689642L201.3846153846154,34.4797521130904L202.46153846153845,34.351401104330904L203.53846153846152,34.2080626490513L204.6153846153846,34.30295371231236L205.6923076923077,33.907653009196906L206.76923076923077,34.201095387518905L207.84615384615387,34.93793263744146L208.92307692307693,35.19914085096616L210,34.69258727884193L211.07692307692307,34.467042594686575L212.15384615384613,34.34980519783622L213.23076923076923,34.56286357346451L214.3076923076923,34.576132312436584L215.3846153846154,34.61424257855796L216.46153846153848,34.34164831539704L217.53846153846155,34.38310511211981L218.6153846153846,34.66123098115381L219.69230769230768,34.918553570788646L220.76923076923077,34.68100982897374L221.84615384615384,34.60481143390871L222.9230769230769,34.73998653329852L224,34.44121390643187L225.0769230769231,34.53329153495511L226.15384615384616,34.021736484592054L227.23076923076923,33.799220718041L228.3076923076923,34.03955914006332L229.3846153846154,33.97874883865734L230.46153846153845,34.026679921480564L231.53846153846152,34.39310762584165L232.61538461538464,34.944603498577806L233.6923076923077,34.64237154471857L234.76923076923077,34.58162846335563L235.84615384615384,34.88888147375263L236.92307692307693,34.548640284347215L238,34.43494263891836L239.07692307692307,34.716452715423486L240.15384615384613,34.28840811111141L241.23076923076925,33.98937271669075L242.30769230769232,34.03305424830057L243.3846153846154,33.98087570814735L244.46153846153845,33.98574741134115L245.53846153846155,34.16353476513865L246.6153846153846,34.306386004702915L247.69230769230768,34.01824886648856L248.76923076923075,34.026260719988784L249.84615384615387,34.03709763663653L250.92307692307693,33.953152718410735L252,33.62541475828439L253.07692307692307,33.92924575966174L254.15384615384616,33.381938010225156" style="fill: none;" fill="none"></path></g></g></g></g><g opacity="0.2"><g><g><g><path stroke="rgb(255, 112, 67)" stroke-width="2px" d="M21.53846153846154,153.21747921655577L22.615384615384617,125.45020385583243L23.692307692307693,105.88347041606904L24.76923076923077,95.96443309386572L25.846153846153847,85.56301140785219L26.923076923076923,78.930217564106L28,73.71442778905235L29.07692307692308,70.41310979922615L30.153846153846157,66.41836428642274L31.230769230769234,63.82553948958717L32.30769230769231,63.01151587565742L33.38461538461539,60.97645684083305L34.46153846153847,60.72019014755887L35.53846153846153,59.30318607886635L36.61538461538462,56.96663681666058L37.69230769230769,56.24305142958961L38.769230769230774,54.615004201730116L39.84615384615385,54.660227735837324L40.92307692307693,53.15277659893037L42,51.50965485970181L43.07692307692308,51.569952905178084L44.15384615384615,50.07757627964021L45.23076923076923,51.37398425738019L46.30769230769231,50.71070575714113L47.38461538461539,50.258470416069045L48.46153846153846,49.02236048380536L49.53846153846154,49.09773304065072L50.61538461538461,49.20325462023419L51.69230769230769,48.69072123368585L52.76923076923077,47.7259525060654L53.84615384615385,46.173268993695615L54.92307692307692,46.38431215286258L56,45.434617936611204L57.07692307692307,45.2838728229205L58.15384615384616,45.389394402503996L59.23076923076923,44.43970018625262L60.307692307692314,44.1985080043475L61.38461538461539,44.60551981131238L62.46153846153847,46.03759839137399L63.53846153846154,44.57537078857425L64.61538461538461,43.70104912916821L65.6923076923077,43.384484390417754L66.76923076923077,43.80657070875171L67.84615384615384,43.92716679970425L68.92307692307693,43.56537852684659L70,41.68106460571292L71.07692307692307,42.14837445815408L72.15384615384615,42.60060979922616L73.23076923076924,41.68106460571292L74.3076923076923,41.95240581035617L75.38461538461539,40.67107234398526L76.46153846153845,41.63584107160571L77.53846153846155,42.057927389939664L78.61538461538461,41.71121362845105L79.6923076923077,41.87703325351083L80.76923076923076,41.56046851476037L81.84615384615385,41.274052798748045L82.92307692307692,42.057927389939664L84,41.515244980653165L85.07692307692307,40.62584880987805L86.15384615384616,40.80674294630688L87.23076923076923,40.85196648041409L88.3076923076923,40.11331542332971L89.38461538461537,39.706303616364835L90.46153846153847,39.64600557088855L91.53846153846153,40.05301737785342L92.61538461538461,40.67107234398526L93.69230769230768,39.85704873005551L94.76923076923077,40.11331542332971L95.84615384615385,40.761519412199675L96.92307692307692,39.38973887761438L98,39.82689970731738L99.07692307692308,39.67615459362668L100.15384615384616,39.8118251959483L101.23076923076923,38.63601330916089L102.3076923076923,38.71138586600625L103.38461538461539,38.57571526368463L104.46153846153847,38.53049172957742L105.53846153846153,37.821980853875516L106.61538461538461,39.28421729803088L107.6923076923077,39.223919252554595L108.76923076923077,38.78675842285159L109.84615384615384,37.64108671744668L110.92307692307692,38.455119172732054L112,37.49034160375598L113.07692307692308,37.70138476292294L114.15384615384615,38.86213097969693L115.23076923076923,37.20392588774365L116.30769230769232,37.595863183339475L117.38461538461539,37.65616122881573L118.46153846153847,37.083329796791105L119.53846153846153,38.10840541124347L120.61538461538463,37.36974551280343L121.6923076923077,38.33452308177951L122.76923076923077,37.354671001434355L123.84615384615384,37.74660829703015L124.92307692307693,38.03303285439813L126,37.77675731976831L127.07692307692308,37.897353410720854L128.15384615384616,36.842137614885985L129.23076923076923,37.44511806964877L130.30769230769232,37.79183183113736L131.3846153846154,37.41496904691064L132.46153846153845,36.35975325107577L133.53846153846155,38.1385544339816L134.6153846153846,37.64108671744668L135.69230769230768,35.90751791000369L136.76923076923077,36.20900813738507L137.84615384615387,37.00795723994577L138.92307692307693,36.45020031929019L140,36.14871009190881L141.07692307692307,36.1034865578016L142.15384615384613,36.314529716968565L143.23076923076923,36.87228663762414L144.3076923076923,38.183777968088805L145.3846153846154,36.99288272857669L146.46153846153848,36.616019944349944L147.53846153846155,35.34976098934811L148.6153846153846,37.0381062626839L149.69230769230768,35.21409038702649L150.76923076923077,36.013039489587186L151.84615384615384,36.585870921611814L152.9230769230769,36.88736114899319L154,36.043188512325315L155.0769230769231,34.746780534585355L156.15384615384616,35.66632572809857L157.23076923076923,36.52557287613553L158.3076923076923,36.842137614885985L159.3846153846154,34.8673766255379L160.46153846153845,34.61110993226373L161.53846153846152,35.771847307682066L162.61538461538464,38.198852479457884L163.6923076923077,35.274388432502775L164.76923076923077,35.048270761966734L165.84615384615384,35.545729637146025L166.92307692307693,37.053180774052976L168,35.530655125776946L169.07692307692307,34.79200406869256L170.15384615384613,35.817070841789274L171.23076923076925,35.89244339863461L172.30769230769232,35.4100590348244L173.3846153846154,34.68648248910907L174.46153846153845,35.048270761966734L175.53846153846155,35.89244339863461L176.6153846153846,35.4100590348244L177.69230769230768,36.40497678518298L178.76923076923075,34.29454519351327L179.84615384615387,34.98797271649045L180.92307692307693,36.028114000956236L182,35.98289046684903L183.07692307692307,34.64125895500186L184.15384615384616,34.264396170775115L185.23076923076923,37.26422393321994L186.3076923076923,35.65125121672952L187.38461538461536,35.13871783018115L188.46153846153848,35.741698284943936L189.53846153846155,34.249321659406064L190.6153846153846,35.48543159166974L191.6923076923077,36.22408264875415L192.76923076923077,34.08350203434628L193.84615384615384,33.721713761488616L194.9230769230769,34.18902361392978L196,35.65125121672952L197.0769230769231,35.21409038702649L198.15384615384616,36.90243566036227L199.23076923076923,34.95782369375232L200.30769230769232,34.36991775035861L201.3846153846154,33.67649022738141L202.46153846153845,34.15887459119165L203.53846153846152,33.993054966131865L204.6153846153846,34.44529030720395L205.6923076923077,33.31470195452374L206.76923076923077,34.64125895500186L207.84615384615387,36.043188512325315L208.92307692307693,35.59095317125323L210,33.932756920655606L211.07692307692307,34.12872556845349L212.15384615384613,34.1739491025607L213.23076923076923,34.88245113690698L214.3076923076923,34.59603542089465L215.3846153846154,34.67140797773999L216.46153846153848,33.932756920655606L217.53846153846155,34.44529030720395L218.6153846153846,35.07841978470486L219.69230769230768,35.304537455240904L220.76923076923077,34.3246942162514L221.84615384615384,34.490513841311156L222.9230769230769,34.94274918238324L224,33.993054966131865L225.0769230769231,34.67140797773999L226.15384615384616,33.25440390904748L227.23076923076923,33.465447068214445L228.3076923076923,34.40006677309674L229.3846153846154,33.8875333865484L230.46153846153845,34.09857654571536L231.53846153846152,34.94274918238324L232.61538461538464,35.771847307682066L233.6923076923077,34.18902361392978L234.76923076923077,34.490513841311156L235.84615384615384,35.34976098934811L236.92307692307693,34.03827850023907L238,34.264396170775115L239.07692307692307,35.13871783018115L240.15384615384613,33.64634120464328L241.23076923076925,33.54081962505978L242.30769230769232,34.09857654571536L243.3846153846154,33.90260789791745L244.46153846153845,33.993054966131865L245.53846153846155,34.4302157958349L246.6153846153846,34.520662864049314L247.69230769230768,33.58604315916699L248.76923076923075,34.03827850023907L249.84615384615387,34.05335301160815L250.92307692307693,33.82723534107211L252,33.13380781809491L253.07692307692307,34.38499226172769L254.15384615384616,32.56097638607028" style="fill: none;" fill="none"></path></g></g></g></g></g></g><g transform="translate(50, 178)" clip-path="url(#clip_1)"><clipPath id="clip_1"><rect width="280" height="22"></rect></clipPath><g><g><line x1="0" y1="0" x2="0" y2="5" style="visibility: inherit;" fill="rgb(0, 0, 0)" stroke="rgb(204, 204, 204)" stroke-width="1px"></line><line x1="21.53846153846154" y1="0" x2="21.53846153846154" y2="5" style="visibility: inherit;" fill="rgb(0, 0, 0)" stroke="rgb(204, 204, 204)" stroke-width="1px"></line><line x1="43.07692307692308" y1="0" x2="43.07692307692308" y2="5" style="visibility: inherit;" fill="rgb(0, 0, 0)" stroke="rgb(204, 204, 204)" stroke-width="1px"></line><line x1="64.61538461538461" y1="0" x2="64.61538461538461" y2="5" style="visibility: inherit;" fill="rgb(0, 0, 0)" stroke="rgb(204, 204, 204)" stroke-width="1px"></line><line x1="86.15384615384616" y1="0" x2="86.15384615384616" y2="5" style="visibility: inherit;" fill="rgb(0, 0, 0)" stroke="rgb(204, 204, 204)" stroke-width="1px"></line><line x1="107.6923076923077" y1="0" x2="107.6923076923077" y2="5" style="visibility: inherit;" fill="rgb(0, 0, 0)" stroke="rgb(204, 204, 204)" stroke-width="1px"></line><line x1="129.23076923076923" y1="0" x2="129.23076923076923" y2="5" style="visibility: inherit;" fill="rgb(0, 0, 0)" stroke="rgb(204, 204, 204)" stroke-width="1px"></line><line x1="150.76923076923077" y1="0" x2="150.76923076923077" y2="5" style="visibility: inherit;" fill="rgb(0, 0, 0)" stroke="rgb(204, 204, 204)" stroke-width="1px"></line><line x1="172.30769230769232" y1="0" x2="172.30769230769232" y2="5" style="visibility: inherit;" fill="rgb(0, 0, 0)" stroke="rgb(204, 204, 204)" stroke-width="1px"></line><line x1="193.84615384615384" y1="0" x2="193.84615384615384" y2="5" style="visibility: inherit;" fill="rgb(0, 0, 0)" stroke="rgb(204, 204, 204)" stroke-width="1px"></line><line x1="215.3846153846154" y1="0" x2="215.3846153846154" y2="5" style="visibility: inherit;" fill="rgb(0, 0, 0)" stroke="rgb(204, 204, 204)" stroke-width="1px"></line><line x1="236.92307692307693" y1="0" x2="236.92307692307693" y2="5" style="visibility: inherit;" fill="rgb(0, 0, 0)" stroke="rgb(204, 204, 204)" stroke-width="1px"></line><line x1="258.46153846153845" y1="0" x2="258.46153846153845" y2="5" style="visibility: inherit;" fill="rgb(0, 0, 0)" stroke="rgb(204, 204, 204)" stroke-width="1px"></line><line x1="280" y1="0" x2="280" y2="5" style="visibility: inherit;" fill="rgb(0, 0, 0)" stroke="rgb(204, 204, 204)" stroke-width="1px"></line></g><g transform="translate(0, 8)"><text x="0" y="0" dx="0em" dy="0.95em" style="text-anchor: middle; visibility: hidden; font-family: &quot;Helvetica Neue&quot;, sans-serif; font-size: 12px; font-weight: 200;" fill="rgb(50, 49, 63)" stroke="none" stroke-width="1px">-20</text><text x="21.53846153846154" y="0" dx="0em" dy="0.95em" style="text-anchor: middle; visibility: inherit; font-family: &quot;Helvetica Neue&quot;, sans-serif; font-size: 12px; font-weight: 200;" fill="rgb(50, 49, 63)" stroke="none" stroke-width="1px">0</text><text x="43.07692307692308" y="0" dx="0em" dy="0.95em" style="text-anchor: middle; visibility: hidden; font-family: &quot;Helvetica Neue&quot;, sans-serif; font-size: 12px; font-weight: 200;" fill="rgb(50, 49, 63)" stroke="none" stroke-width="1px">20</text><text x="64.61538461538461" y="0" dx="0em" dy="0.95em" style="text-anchor: middle; visibility: inherit; font-family: &quot;Helvetica Neue&quot;, sans-serif; font-size: 12px; font-weight: 200;" fill="rgb(50, 49, 63)" stroke="none" stroke-width="1px">40</text><text x="86.15384615384616" y="0" dx="0em" dy="0.95em" style="text-anchor: middle; visibility: hidden; font-family: &quot;Helvetica Neue&quot;, sans-serif; font-size: 12px; font-weight: 200;" fill="rgb(50, 49, 63)" stroke="none" stroke-width="1px">60</text><text x="107.6923076923077" y="0" dx="0em" dy="0.95em" style="text-anchor: middle; visibility: inherit; font-family: &quot;Helvetica Neue&quot;, sans-serif; font-size: 12px; font-weight: 200;" fill="rgb(50, 49, 63)" stroke="none" stroke-width="1px">80</text><text x="129.23076923076923" y="0" dx="0em" dy="0.95em" style="text-anchor: middle; visibility: hidden; font-family: &quot;Helvetica Neue&quot;, sans-serif; font-size: 12px; font-weight: 200;" fill="rgb(50, 49, 63)" stroke="none" stroke-width="1px">100</text><text x="150.76923076923077" y="0" dx="0em" dy="0.95em" style="text-anchor: middle; visibility: inherit; font-family: &quot;Helvetica Neue&quot;, sans-serif; font-size: 12px; font-weight: 200;" fill="rgb(50, 49, 63)" stroke="none" stroke-width="1px">120</text><text x="172.30769230769232" y="0" dx="0em" dy="0.95em" style="text-anchor: middle; visibility: hidden; font-family: &quot;Helvetica Neue&quot;, sans-serif; font-size: 12px; font-weight: 200;" fill="rgb(50, 49, 63)" stroke="none" stroke-width="1px">140</text><text x="193.84615384615384" y="0" dx="0em" dy="0.95em" style="text-anchor: middle; visibility: inherit; font-family: &quot;Helvetica Neue&quot;, sans-serif; font-size: 12px; font-weight: 200;" fill="rgb(50, 49, 63)" stroke="none" stroke-width="1px">160</text><text x="215.3846153846154" y="0" dx="0em" dy="0.95em" style="text-anchor: middle; visibility: hidden; font-family: &quot;Helvetica Neue&quot;, sans-serif; font-size: 12px; font-weight: 200;" fill="rgb(50, 49, 63)" stroke="none" stroke-width="1px">180</text><text x="236.92307692307693" y="0" dx="0em" dy="0.95em" style="text-anchor: middle; visibility: inherit; font-family: &quot;Helvetica Neue&quot;, sans-serif; font-size: 12px; font-weight: 200;" fill="rgb(50, 49, 63)" stroke="none" stroke-width="1px">200</text><text x="258.46153846153845" y="0" dx="0em" dy="0.95em" style="text-anchor: middle; visibility: hidden; font-family: &quot;Helvetica Neue&quot;, sans-serif; font-size: 12px; font-weight: 200;" fill="rgb(50, 49, 63)" stroke="none" stroke-width="1px">220</text><text x="280" y="0" dx="0em" dy="0.95em" style="text-anchor: middle; visibility: hidden; font-family: &quot;Helvetica Neue&quot;, sans-serif; font-size: 12px; font-weight: 200;" fill="rgb(50, 49, 63)" stroke="none" stroke-width="1px">240</text></g><line x1="0" y1="0" x2="280" y2="0" fill="rgb(0, 0, 0)" stroke="rgb(204, 204, 204)" stroke-width="1px"></line></g></g></g></g></svg>