<svg viewBox="0 0 330 200" xmlns="http://www.w3.org/2000/svg"><g><g><g><g><g><line x1="70" y1="178" x2="65" y2="178" style="visibility: inherit;" fill="rgb(0, 0, 0)" stroke="rgb(204, 204, 204)" stroke-width="1px"></line><line x1="70" y1="164.30769230769232" x2="65" y2="164.30769230769232" style="visibility: inherit;" fill="rgb(0, 0, 0)" stroke="rgb(204, 204, 204)" stroke-width="1px"></line><line x1="70" y1="150.6153846153846" x2="65" y2="150.6153846153846" style="visibility: inherit;" fill="rgb(0, 0, 0)" stroke="rgb(204, 204, 204)" stroke-width="1px"></line><line x1="70" y1="136.9230769230769" x2="65" y2="136.9230769230769" style="visibility: inherit;" fill="rgb(0, 0, 0)" stroke="rgb(204, 204, 204)" stroke-width="1px"></line><line x1="70" y1="123.23076923076924" x2="65" y2="123.23076923076924" style="visibility: inherit;" fill="rgb(0, 0, 0)" stroke="rgb(204, 204, 204)" stroke-width="1px"></line><line x1="70" y1="109.53846153846153" x2="65" y2="109.53846153846153" style="visibility: inherit;" fill="rgb(0, 0, 0)" stroke="rgb(204, 204, 204)" stroke-width="1px"></line><line x1="70" y1="95.84615384615383" x2="65" y2="95.84615384615383" style="visibility: inherit;" fill="rgb(0, 0, 0)" stroke="rgb(204, 204, 204)" stroke-width="1px"></line><line x1="70" y1="82.15384615384616" x2="65" y2="82.15384615384616" style="visibility: inherit;" fill="rgb(0, 0, 0)" stroke="rgb(204, 204, 204)" stroke-width="1px"></line><line x1="70" y1="68.46153846153845" x2="65" y2="68.46153846153845" style="visibility: inherit;" fill="rgb(0, 0, 0)" stroke="rgb(204, 204, 204)" stroke-width="1px"></line><line x1="70" y1="54.76923076923076" x2="65" y2="54.76923076923076" style="visibility: inherit;" fill="rgb(0, 0, 0)" stroke="rgb(204, 204, 204)" stroke-width="1px"></line><line x1="70" y1="41.076923076923066" x2="65" y2="41.076923076923066" style="visibility: inherit;" fill="rgb(0, 0, 0)" stroke="rgb(204, 204, 204)" stroke-width="1px"></line><line x1="70" y1="27.38461538461536" x2="65" y2="27.38461538461536" style="visibility: inherit;" fill="rgb(0, 0, 0)" stroke="rgb(204, 204, 204)" stroke-width="1px"></line><line x1="70" y1="13.69230769230765" x2="65" y2="13.69230769230765" style="visibility: inherit;" fill="rgb(0, 0, 0)" stroke="rgb(204, 204, 204)" stroke-width="1px"></line></g><g transform="translate(60, 0)"><text x="0" y="178" dx="0em" dy="0.3em" style="text-anchor: end; visibility: hidden; font-family: &quot;Helvetica Neue&quot;, sans-serif; font-size: 12px; font-weight: 200;" fill="rgb(50, 49, 63)" stroke="none" stroke-width="1px">-1e-4</text><text x="0" y="164.30769230769232" dx="0em" dy="0.3em" style="text-anchor: end; visibility: inherit; font-family: &quot;Helvetica Neue&quot;, sans-serif; font-size: 12px; font-weight: 200;" fill="rgb(50, 49, 63)" stroke="none" stroke-width="1px">0</text><text x="0" y="150.6153846153846" dx="0em" dy="0.3em" style="text-anchor: end; visibility: hidden; font-family: &quot;Helvetica Neue&quot;, sans-serif; font-size: 12px; font-weight: 200;" fill="rgb(50, 49, 63)" stroke="none" stroke-width="1px">1e-4</text><text x="0" y="136.9230769230769" dx="0em" dy="0.3em" style="text-anchor: end; visibility: inherit; font-family: &quot;Helvetica Neue&quot;, sans-serif; font-size: 12px; font-weight: 200;" fill="rgb(50, 49, 63)" stroke="none" stroke-width="1px">2e-4</text><text x="0" y="123.23076923076924" dx="0em" dy="0.3em" style="text-anchor: end; visibility: hidden; font-family: &quot;Helvetica Neue&quot;, sans-serif; font-size: 12px; font-weight: 200;" fill="rgb(50, 49, 63)" stroke="none" stroke-width="1px">3e-4</text><text x="0" y="109.53846153846153" dx="0em" dy="0.3em" style="text-anchor: end; visibility: inherit; font-family: &quot;Helvetica Neue&quot;, sans-serif; font-size: 12px; font-weight: 200;" fill="rgb(50, 49, 63)" stroke="none" stroke-width="1px">4e-4</text><text x="0" y="95.84615384615383" dx="0em" dy="0.3em" style="text-anchor: end; visibility: hidden; font-family: &quot;Helvetica Neue&quot;, sans-serif; font-size: 12px; font-weight: 200;" fill="rgb(50, 49, 63)" stroke="none" stroke-width="1px">5e-4</text><text x="0" y="82.15384615384616" dx="0em" dy="0.3em" style="text-anchor: end; visibility: inherit; font-family: &quot;Helvetica Neue&quot;, sans-serif; font-size: 12px; font-weight: 200;" fill="rgb(50, 49, 63)" stroke="none" stroke-width="1px">6e-4</text><text x="0" y="68.46153846153845" dx="0em" dy="0.3em" style="text-anchor: end; visibility: hidden; font-family: &quot;Helvetica Neue&quot;, sans-serif; font-size: 12px; font-weight: 200;" fill="rgb(50, 49, 63)" stroke="none" stroke-width="1px">7e-4</text><text x="0" y="54.76923076923076" dx="0em" dy="0.3em" style="text-anchor: end; visibility: inherit; font-family: &quot;Helvetica Neue&quot;, sans-serif; font-size: 12px; font-weight: 200;" fill="rgb(50, 49, 63)" stroke="none" stroke-width="1px">8e-4</text><text x="0" y="41.076923076923066" dx="0em" dy="0.3em" style="text-anchor: end; visibility: hidden; font-family: &quot;Helvetica Neue&quot;, sans-serif; font-size: 12px; font-weight: 200;" fill="rgb(50, 49, 63)" stroke="none" stroke-width="1px">9e-4</text><text x="0" y="27.38461538461536" dx="0em" dy="0.3em" style="text-anchor: end; visibility: inherit; font-family: &quot;Helvetica Neue&quot;, sans-serif; font-size: 12px; font-weight: 200;" fill="rgb(50, 49, 63)" stroke="none" stroke-width="1px">1e-3</text><text x="0" y="13.69230769230765" dx="0em" dy="0.3em" style="text-anchor: end; visibility: hidden; font-family: &quot;Helvetica Neue&quot;, sans-serif; font-size: 12px; font-weight: 200;" fill="rgb(50, 49, 63)" stroke="none" stroke-width="1px">1.1e-3</text></g><line x1="70" y1="0" x2="70" y2="178" fill="rgb(0, 0, 0)" stroke="rgb(204, 204, 204)" stroke-width="1px"></line></g></g><g transform="translate(70, 0)" clip-path="url(#clip_0)"><clipPath id="clip_0"><rect width="260" height="178"></rect></clipPath><g><g><g><line x1="0" y1="0" x2="0" y2="178" fill="rgb(0, 0, 0)" stroke="rgb(60, 60, 60)" stroke-width="1px" opacity="0.25"></line><line x1="20" y1="0" x2="20" y2="178" fill="rgb(0, 0, 0)" stroke="rgb(60, 60, 60)" stroke-width="1px" opacity="0.25"></line><line x1="40" y1="0" x2="40" y2="178" fill="rgb(0, 0, 0)" stroke="rgb(60, 60, 60)" stroke-width="1px" opacity="0.25"></line><line x1="60" y1="0" x2="60" y2="178" fill="rgb(0, 0, 0)" stroke="rgb(60, 60, 60)" stroke-width="1px" opacity="0.25"></line><line x1="80" y1="0" x2="80" y2="178" fill="rgb(0, 0, 0)" stroke="rgb(60, 60, 60)" stroke-width="1px" opacity="0.25"></line><line x1="100" y1="0" x2="100" y2="178" fill="rgb(0, 0, 0)" stroke="rgb(60, 60, 60)" stroke-width="1px" opacity="0.25"></line><line x1="120" y1="0" x2="120" y2="178" fill="rgb(0, 0, 0)" stroke="rgb(60, 60, 60)" stroke-width="1px" opacity="0.25"></line><line x1="140" y1="0" x2="140" y2="178" fill="rgb(0, 0, 0)" stroke="rgb(60, 60, 60)" stroke-width="1px" opacity="0.25"></line><line x1="160" y1="0" x2="160" y2="178" fill="rgb(0, 0, 0)" stroke="rgb(60, 60, 60)" stroke-width="1px" opacity="0.25"></line><line x1="180" y1="0" x2="180" y2="178" fill="rgb(0, 0, 0)" stroke="rgb(60, 60, 60)" stroke-width="1px" opacity="0.25"></line><line x1="200" y1="0" x2="200" y2="178" fill="rgb(0, 0, 0)" stroke="rgb(60, 60, 60)" stroke-width="1px" opacity="0.25"></line><line x1="220" y1="0" x2="220" y2="178" fill="rgb(0, 0, 0)" stroke="rgb(60, 60, 60)" stroke-width="1px" opacity="0.25"></line><line x1="240" y1="0" x2="240" y2="178" fill="rgb(0, 0, 0)" stroke="rgb(60, 60, 60)" stroke-width="1px" opacity="0.25"></line><line x1="260" y1="0" x2="260" y2="178" fill="rgb(0, 0, 0)" stroke="rgb(60, 60, 60)" stroke-width="1px" opacity="0.25"></line></g><g><line x1="0" y1="178" x2="260" y2="178" fill="rgb(0, 0, 0)" stroke="rgb(60, 60, 60)" stroke-width="1px" opacity="0.25"></line><line x1="0" y1="164.30769230769232" x2="260" y2="164.30769230769232" fill="rgb(0, 0, 0)" stroke="rgb(60, 60, 60)" stroke-width="1px" opacity="0.25"></line><line x1="0" y1="150.6153846153846" x2="260" y2="150.6153846153846" fill="rgb(0, 0, 0)" stroke="rgb(60, 60, 60)" stroke-width="1px" opacity="0.25"></line><line x1="0" y1="136.9230769230769" x2="260" y2="136.9230769230769" fill="rgb(0, 0, 0)" stroke="rgb(60, 60, 60)" stroke-width="1px" opacity="0.25"></line><line x1="0" y1="123.23076923076924" x2="260" y2="123.23076923076924" fill="rgb(0, 0, 0)" stroke="rgb(60, 60, 60)" stroke-width="1px" opacity="0.25"></line><line x1="0" y1="109.53846153846153" x2="260" y2="109.53846153846153" fill="rgb(0, 0, 0)" stroke="rgb(60, 60, 60)" stroke-width="1px" opacity="0.25"></line><line x1="0" y1="95.84615384615383" x2="260" y2="95.84615384615383" fill="rgb(0, 0, 0)" stroke="rgb(60, 60, 60)" stroke-width="1px" opacity="0.25"></line><line x1="0" y1="82.15384615384616" x2="260" y2="82.15384615384616" fill="rgb(0, 0, 0)" stroke="rgb(60, 60, 60)" stroke-width="1px" opacity="0.25"></line><line x1="0" y1="68.46153846153845" x2="260" y2="68.46153846153845" fill="rgb(0, 0, 0)" stroke="rgb(60, 60, 60)" stroke-width="1px" opacity="0.25"></line><line x1="0" y1="54.76923076923076" x2="260" y2="54.76923076923076" fill="rgb(0, 0, 0)" stroke="rgb(60, 60, 60)" stroke-width="1px" opacity="0.25"></line><line x1="0" y1="41.076923076923066" x2="260" y2="41.076923076923066" fill="rgb(0, 0, 0)" stroke="rgb(60, 60, 60)" stroke-width="1px" opacity="0.25"></line><line x1="0" y1="27.38461538461536" x2="260" y2="27.38461538461536" fill="rgb(0, 0, 0)" stroke="rgb(60, 60, 60)" stroke-width="1px" opacity="0.25"></line><line x1="0" y1="13.69230769230765" x2="260" y2="13.69230769230765" fill="rgb(0, 0, 0)" stroke="rgb(60, 60, 60)" stroke-width="1px" opacity="0.25"></line></g></g></g><g><g><line x1="0" y1="164.30769230769232" x2="260" y2="164.30769230769232" fill="rgb(0, 0, 0)" stroke="rgb(153, 153, 153)" stroke-width="1.5px"></line></g></g><g><g><line x1="20" y1="0" x2="20" y2="178" fill="rgb(0, 0, 0)" stroke="rgb(153, 153, 153)" stroke-width="1.5px"></line></g></g><g><g><g><g><g><path stroke="rgb(255, 112, 67)" stroke-width="2px" d="M20,153.76751089273378L21,147.1835151285027L22,139.79626845229552L23,131.70133250501772L24,123.01088998293511L25,113.84001058703683L26,104.2959932424748L27,94.47186463746657L28,84.44375784830972L29,74.27117853085788L30,63.99891231552719L31,53.6596578325442L32,43.33134931928086L33,37.15799955252251L34,33.47207786880051L35,31.276615731042483L36,29.974708238405213L37,29.20867710964859L38,28.76407355762106L39,28.51229373277448L40,28.376190101148296L41,28.309481697377265L42,28.284409002668923L43,28.28431087494141L44,28.29919095665258L45,28.323051543677167L46,28.352306800710835L47,28.384786108556852L48,28.41919984962209L49,28.454767877089694L50,28.491022102183763L51,28.527688047017136L52,28.564594648451475L53,28.601645644301385L54,28.638776901100528L55,28.675949938659954L56,28.71314166879958L57,28.75034461454854L58,28.78755428969987L59,28.824755250559434L60,28.861950982857252L61,28.899143578025985L62,28.9363279149444L63,28.973500920937823L64,29.010660752400355L65,29.047812679145437L66,29.084953487083L67,29.122087623736462L68,29.159211381642024L69,29.196322536321333L70,29.23342612906501L71,29.27051880866975L72,29.30759856441344L73,29.3446705658406L74,29.381731538700194L75,29.418779518441653L76,29.455819702312198L77,29.49284883268257L78,29.529871330952886L79,29.56688347398554L80,29.603883027897922L81,29.640875028338172L82,29.677856120717507L83,29.714824292282685L84,29.751784711359335L85,29.788734102965236L86,29.825670502111137L87,29.862599105780987L88,29.899516656187586L89,29.936427574636184L90,29.97332813793247L91,30.01021611215964L92,30.047096532945375L93,30.08396604568864L94,30.12082263762872L95,30.157671477087007L96,30.194509289078496L97,30.231334108612344L98,30.268151132671562L99,30.30495710346841L100,30.341756442307798L101,30.3785454259951L102,30.415321820613542L103,30.452090661790663L104,30.488848594925372L105,30.52559360725698L106,30.562327679117942L107,30.59905518669649L108,30.635772379727968L109,30.67247700805359L110,30.70917409755569L111,30.74586028778606L112,30.782536750464573L113,30.81920418862316L114,30.85585983609215L115,30.892505221158615L116,30.929141260794694L117,30.965768505183775L118,31.002384096446974L119,31.038989507845884L120,31.07558562333739L121,31.112169785306833L122,31.148746775163033L123,31.185313085773657L124,31.22186980084811L125,31.258414382623272L126,31.294948496430038L127,31.331473141466915L128,31.367988917253086L129,31.404496183499987L130,31.440991968045722L131,31.47747767558195L132,31.51395414892363L133,31.550418705770966L134,31.586872924732916L135,31.623317752974827L136,31.65975375879583L137,31.696178095186696L138,31.73259542991954L139,31.768998999691036L140,31.80539431048581L141,31.84178147790564L142,31.878157383322986L143,31.914523343549916L144,31.950876960685065L145,31.9872231719651L146,32.02355856375442L147,32.05988427586058L148,32.0961978041791L149,32.132504022225135L150,32.16879947813004L151,32.20508528876141L152,32.241362124239885L153,32.27762719864896L154,32.31388202842763L155,32.3501275234392L156,32.386364229601725L157,32.42258928647715L158,32.45880416579158L159,32.49500975058049L160,32.531206570665375L161,32.56739175595021L162,32.603569960354946L163,32.63973760025405L164,32.675892525472136L165,32.71203982188166L166,32.748176165028354L167,32.784302748228555L168,32.82042028747205L169,32.85652602436389L170,32.89262149185592L171,32.92870760971928L172,32.9647849298166L173,33.000853783265484L174,33.03691118074764L175,33.07295851666103L176,33.10899662764433L177,33.14502282769189L178,33.18103869318924L179,33.21704516996763L180,33.25304282552588L181,33.289032000363136L182,33.325009710790255L183,33.360977354582474L184,33.396935770404895L185,33.432885461456664L186,33.46882354166837L187,33.50475146738725L188,33.54067011242165L189,33.5765800010565L190,33.612478259874024L191,33.64836635281236L192,33.68424515823432L193,33.72011520315763L194,33.75597680379303L195,33.79182696187797L196,33.827667066443865L197,33.863497950909505L198,33.89931692733737L199,33.935125570953716L200,33.970928014883185L201,34.00671717503411L202,34.04249836491789L203,34.07826839666376L204,34.11403173352687L205,34.149781489493876L206,34.185523096923276L207,34.22125662724122L208,34.25697893531472L209,34.29269132205275L210,34.32839456800062L211,34.36408595349684L212,34.3997670347332L213,34.4354419334137L214,34.471103558594166L215,34.50675721967471L216,34.54239972631757L217,34.57803554029792L218,34.61366096270308L219,34.6492737741855L220,34.684879019114305L221,34.72047334813328L222,34.75605793961759L223,34.79163350059224L224,34.82719726728348L225,34.862753957404664L226,34.89830002560623L227,34.933836532667186L228,34.96936092706616L229,35.00487805386791L230,35.040384444133764L231,35.07588120448921L232,35.1113689989096L233,35.14684822578016L234,35.182315936143226L235,35.21777354861294L236,35.25322191435782" style="fill: none;" fill="none"></path></g></g></g></g><g opacity="0.2"><g><g><g><path stroke="rgb(255, 112, 67)" stroke-width="2px" d="M20,153.76751089273378L21,143.23311766996406L22,132.70451164313664L23,122.18168783101898L24,111.6646482261041L25,101.15338286592696L26,90.64789573547357L27,80.14819081972996L28,69.65424819376605L29,59.166083797525886L30,48.6836816910654L31,38.20704187438463L32,27.872610268684525L33,27.91006913723851L34,27.94752800579252L35,27.98497093440247L36,28.022397923068326L37,28.05982491173421L38,28.097235960456032L39,28.134647009177826L40,28.172042117955584L41,28.20942128678925L42,28.246800455622918L43,28.28416368451255L44,28.32151097345809L45,28.358842322459566L46,28.396189611405106L47,28.43350502046252L48,28.470820429519932L49,28.508119898633282L50,28.54540342780257L51,28.582686956971855L52,28.61995454619708L53,28.657222135422302L54,28.69447378470346L55,28.73170949404053L56,28.768929263433563L57,28.806149032826596L58,28.8433688022196L59,28.880556691724507L60,28.917744581229385L61,28.954932470734292L62,28.992104420295107L63,29.029260429911858L64,29.066400499584574L65,29.103540569257262L66,29.140664698985887L67,29.17778882871451L68,29.214897018499073L69,29.25198926833957L70,29.28908151818007L71,29.326157828076504L72,29.363218198028875L73,29.400278567981246L74,29.437322997989554L75,29.47435148805377L76,29.511379978118015L77,29.548392528238196L78,29.58540507835835L79,29.622401688534467L80,29.659382358766493L81,29.696363028998547L82,29.73332775928651L83,29.77027654963041L84,29.807225339974337L85,29.844158190374174L86,29.881075100829946L87,29.91799201128572L88,29.95489298179743L89,29.991793952309138L90,30.028678982876784L91,30.065548073500366L92,30.10241716412395L93,30.13927031480347L94,30.176107525538924L95,30.21294473627438L96,30.249766007065745L97,30.286571337913074L98,30.323376668760403L99,30.36016605966364L100,30.396955450566907L101,30.43372890152608L102,30.47048641254119L103,30.50724392355633L104,30.54398549462738L105,30.580711125754362L106,30.61742878690933L107,30.654146448064296L108,30.69084816927517L109,30.72753395054201L110,30.764219731808822L111,30.8008895731316L112,30.83755144448233L113,30.874205345861014L114,30.910843307295664L115,30.94747329875824L116,30.984095320248827L117,31.02070937176734L118,31.057307483341816L119,31.093897624944248L120,31.130479796574633L121,31.167046028260984L122,31.203612259947306L123,31.240162551689593L124,31.276704873459835L125,31.313231255285984L126,31.349749667140145L127,31.38626010902223L128,31.4227625809323L129,31.45925708287035L130,31.49573564486434L131,31.53220623688628L132,31.568668858936178L133,31.60511554104201L134,31.641554253175826L135,31.677984995337624L136,31.714407767527348L137,31.750814599773037L138,31.787221432018725L139,31.823604354348305L140,31.859987276677884L141,31.896362229035418L142,31.932721241448917L143,31.96907228389037L144,32.00540738638776L145,32.04174248888515L146,32.078061651438446L147,32.114372844019755L148,32.15066809665697L149,32.18696334929419L150,32.22324266198734L151,32.25951400470848L152,32.29577737745757L153,32.33202481026257L154,32.368264273095576L155,32.40449576595654L156,32.44071928884546L157,32.47692687179031L158,32.51312648476315L159,32.54931812776394L160,32.58550180079271L161,32.621669533877395L162,32.657837266962105L163,32.69398906010272L164,32.730124913299306L165,32.76626076649586L166,32.80238067974835L167,32.83849262302883L168,32.874596596337256L169,32.91068462970162L170,32.94676469309397L171,32.98283678651427L172,33.018900909962554L173,33.05495706343879L174,33.09099727697097L175,33.127029520531096L176,33.16305379411921L177,33.199062127763256L178,33.23506249143526L179,33.27105488513524L180,33.30703930886318L181,33.343015762619075L182,33.37897627643093L183,33.414928820270745L184,33.45087339413851L185,33.48680999803426L186,33.522730661985946L187,33.558643355965586L188,33.59454807997321L189,33.630444834008784L190,33.666325648100326L191,33.70219849221979L192,33.73806336636724L193,33.773920270542675L194,33.80976920474606L195,33.845602199005384L196,33.88142722329266L197,33.91724427760792L198,33.95304539197912L199,33.98883853637827L200,34.02463168077742L201,34.06040091526049L202,34.09617014974353L203,34.131923444282535L204,34.16767673882151L205,34.20340612344441L206,34.23913550806731L207,34.274856922718186L208,34.310562397424974L209,34.346259902159744L210,34.38194943692247L211,34.41762303174113L212,34.45328865658777L213,34.48895428143439L214,34.52459599636492L215,34.56023771129546L216,34.59586348628193L217,34.6314892612684L218,34.66709909631081L219,34.70269299140915L220,34.738286886507495L221,34.77386484166175L222,34.80943482684398L223,34.8449968420542L224,34.880542917320355L225,34.91608899258648L226,34.95161912790857L227,34.98714129325862L228,35.02264751866457L229,35.05815374407055L230,35.09364402953247L231,35.12912634502234L232,35.1646006905402L233,35.20006706608601L234,35.23551750168775L235,35.27095996731748L236,35.30639446297516" style="fill: none;" fill="none"></path></g></g></g></g></g></g><g transform="translate(70, 178)" clip-path="url(#clip_1)"><clipPath id="clip_1"><rect width="260" height="22"></rect></clipPath><g><g><line x1="0" y1="0" x2="0" y2="5" style="visibility: inherit;" fill="rgb(0, 0, 0)" stroke="rgb(204, 204, 204)" stroke-width="1px"></line><line x1="20" y1="0" x2="20" y2="5" style="visibility: inherit;" fill="rgb(0, 0, 0)" stroke="rgb(204, 204, 204)" stroke-width="1px"></line><line x1="40" y1="0" x2="40" y2="5" style="visibility: inherit;" fill="rgb(0, 0, 0)" stroke="rgb(204, 204, 204)" stroke-width="1px"></line><line x1="60" y1="0" x2="60" y2="5" style="visibility: inherit;" fill="rgb(0, 0, 0)" stroke="rgb(204, 204, 204)" stroke-width="1px"></line><line x1="80" y1="0" x2="80" y2="5" style="visibility: inherit;" fill="rgb(0, 0, 0)" stroke="rgb(204, 204, 204)" stroke-width="1px"></line><line x1="100" y1="0" x2="100" y2="5" style="visibility: inherit;" fill="rgb(0, 0, 0)" stroke="rgb(204, 204, 204)" stroke-width="1px"></line><line x1="120" y1="0" x2="120" y2="5" style="visibility: inherit;" fill="rgb(0, 0, 0)" stroke="rgb(204, 204, 204)" stroke-width="1px"></line><line x1="140" y1="0" x2="140" y2="5" style="visibility: inherit;" fill="rgb(0, 0, 0)" stroke="rgb(204, 204, 204)" stroke-width="1px"></line><line x1="160" y1="0" x2="160" y2="5" style="visibility: inherit;" fill="rgb(0, 0, 0)" stroke="rgb(204, 204, 204)" stroke-width="1px"></line><line x1="180" y1="0" x2="180" y2="5" style="visibility: inherit;" fill="rgb(0, 0, 0)" stroke="rgb(204, 204, 204)" stroke-width="1px"></line><line x1="200" y1="0" x2="200" y2="5" style="visibility: inherit;" fill="rgb(0, 0, 0)" stroke="rgb(204, 204, 204)" stroke-width="1px"></line><line x1="220" y1="0" x2="220" y2="5" style="visibility: inherit;" fill="rgb(0, 0, 0)" stroke="rgb(204, 204, 204)" stroke-width="1px"></line><line x1="240" y1="0" x2="240" y2="5" style="visibility: inherit;" fill="rgb(0, 0, 0)" stroke="rgb(204, 204, 204)" stroke-width="1px"></line><line x1="260" y1="0" x2="260" y2="5" style="visibility: inherit;" fill="rgb(0, 0, 0)" stroke="rgb(204, 204, 204)" stroke-width="1px"></line></g><g transform="translate(0, 8)"><text x="0" y="0" dx="0em" dy="0.95em" style="text-anchor: middle; visibility: hidden; font-family: &quot;Helvetica Neue&quot;, sans-serif; font-size: 12px; font-weight: 200;" fill="rgb(50, 49, 63)" stroke="none" stroke-width="1px">-20</text><text x="20" y="0" dx="0em" dy="0.95em" style="text-anchor: middle; visibility: inherit; font-family: &quot;Helvetica Neue&quot;, sans-serif; font-size: 12px; font-weight: 200;" fill="rgb(50, 49, 63)" stroke="none" stroke-width="1px">0</text><text x="40" y="0" dx="0em" dy="0.95em" style="text-anchor: middle; visibility: hidden; font-family: &quot;Helvetica Neue&quot;, sans-serif; font-size: 12px; font-weight: 200;" fill="rgb(50, 49, 63)" stroke="none" stroke-width="1px">20</text><text x="60" y="0" dx="0em" dy="0.95em" style="text-anchor: middle; visibility: inherit; font-family: &quot;Helvetica Neue&quot;, sans-serif; font-size: 12px; font-weight: 200;" fill="rgb(50, 49, 63)" stroke="none" stroke-width="1px">40</text><text x="80" y="0" dx="0em" dy="0.95em" style="text-anchor: middle; visibility: hidden; font-family: &quot;Helvetica Neue&quot;, sans-serif; font-size: 12px; font-weight: 200;" fill="rgb(50, 49, 63)" stroke="none" stroke-width="1px">60</text><text x="100" y="0" dx="0em" dy="0.95em" style="text-anchor: middle; visibility: inherit; font-family: &quot;Helvetica Neue&quot;, sans-serif; font-size: 12px; font-weight: 200;" fill="rgb(50, 49, 63)" stroke="none" stroke-width="1px">80</text><text x="120" y="0" dx="0em" dy="0.95em" style="text-anchor: middle; visibility: hidden; font-family: &quot;Helvetica Neue&quot;, sans-serif; font-size: 12px; font-weight: 200;" fill="rgb(50, 49, 63)" stroke="none" stroke-width="1px">100</text><text x="140" y="0" dx="0em" dy="0.95em" style="text-anchor: middle; visibility: inherit; font-family: &quot;Helvetica Neue&quot;, sans-serif; font-size: 12px; font-weight: 200;" fill="rgb(50, 49, 63)" stroke="none" stroke-width="1px">120</text><text x="160" y="0" dx="0em" dy="0.95em" style="text-anchor: middle; visibility: hidden; font-family: &quot;Helvetica Neue&quot;, sans-serif; font-size: 12px; font-weight: 200;" fill="rgb(50, 49, 63)" stroke="none" stroke-width="1px">140</text><text x="180" y="0" dx="0em" dy="0.95em" style="text-anchor: middle; visibility: inherit; font-family: &quot;Helvetica Neue&quot;, sans-serif; font-size: 12px; font-weight: 200;" fill="rgb(50, 49, 63)" stroke="none" stroke-width="1px">160</text><text x="200" y="0" dx="0em" dy="0.95em" style="text-anchor: middle; visibility: hidden; font-family: &quot;Helvetica Neue&quot;, sans-serif; font-size: 12px; font-weight: 200;" fill="rgb(50, 49, 63)" stroke="none" stroke-width="1px">180</text><text x="220" y="0" dx="0em" dy="0.95em" style="text-anchor: middle; visibility: inherit; font-family: &quot;Helvetica Neue&quot;, sans-serif; font-size: 12px; font-weight: 200;" fill="rgb(50, 49, 63)" stroke="none" stroke-width="1px">200</text><text x="240" y="0" dx="0em" dy="0.95em" style="text-anchor: middle; visibility: hidden; font-family: &quot;Helvetica Neue&quot;, sans-serif; font-size: 12px; font-weight: 200;" fill="rgb(50, 49, 63)" stroke="none" stroke-width="1px">220</text><text x="260" y="0" dx="0em" dy="0.95em" style="text-anchor: middle; visibility: hidden; font-family: &quot;Helvetica Neue&quot;, sans-serif; font-size: 12px; font-weight: 200;" fill="rgb(50, 49, 63)" stroke="none" stroke-width="1px">240</text></g><line x1="0" y1="0" x2="260" y2="0" fill="rgb(0, 0, 0)" stroke="rgb(204, 204, 204)" stroke-width="1px"></line></g></g></g></g></svg>
