<svg viewBox="0 0 330 200" xmlns="http://www.w3.org/2000/svg"><g><g><g><g><g><line x1="70" y1="178" x2="65" y2="178" style="visibility: inherit;" fill="rgb(0, 0, 0)" stroke="rgb(204, 204, 204)" stroke-width="1px"></line><line x1="70" y1="161.8181818181818" x2="65" y2="161.8181818181818" style="visibility: inherit;" fill="rgb(0, 0, 0)" stroke="rgb(204, 204, 204)" stroke-width="1px"></line><line x1="70" y1="145.63636363636363" x2="65" y2="145.63636363636363" style="visibility: inherit;" fill="rgb(0, 0, 0)" stroke="rgb(204, 204, 204)" stroke-width="1px"></line><line x1="70" y1="129.45454545454544" x2="65" y2="129.45454545454544" style="visibility: inherit;" fill="rgb(0, 0, 0)" stroke="rgb(204, 204, 204)" stroke-width="1px"></line><line x1="70" y1="113.27272727272727" x2="65" y2="113.27272727272727" style="visibility: inherit;" fill="rgb(0, 0, 0)" stroke="rgb(204, 204, 204)" stroke-width="1px"></line><line x1="70" y1="97.09090909090908" x2="65" y2="97.09090909090908" style="visibility: inherit;" fill="rgb(0, 0, 0)" stroke="rgb(204, 204, 204)" stroke-width="1px"></line><line x1="70" y1="80.90909090909089" x2="65" y2="80.90909090909089" style="visibility: inherit;" fill="rgb(0, 0, 0)" stroke="rgb(204, 204, 204)" stroke-width="1px"></line><line x1="70" y1="64.7272727272727" x2="65" y2="64.7272727272727" style="visibility: inherit;" fill="rgb(0, 0, 0)" stroke="rgb(204, 204, 204)" stroke-width="1px"></line><line x1="70" y1="48.54545454545453" x2="65" y2="48.54545454545453" style="visibility: inherit;" fill="rgb(0, 0, 0)" stroke="rgb(204, 204, 204)" stroke-width="1px"></line><line x1="70" y1="32.363636363636346" x2="65" y2="32.363636363636346" style="visibility: inherit;" fill="rgb(0, 0, 0)" stroke="rgb(204, 204, 204)" stroke-width="1px"></line><line x1="70" y1="16.181818181818215" x2="65" y2="16.181818181818215" style="visibility: inherit;" fill="rgb(0, 0, 0)" stroke="rgb(204, 204, 204)" stroke-width="1px"></line><line x1="70" y1="0" x2="65" y2="0" style="visibility: inherit;" fill="rgb(0, 0, 0)" stroke="rgb(204, 204, 204)" stroke-width="1px"></line></g><g transform="translate(60, 0)"><text x="0" y="178" dx="0em" dy="0.3em" style="text-anchor: end; visibility: hidden; font-family: &quot;Helvetica Neue&quot;, sans-serif; font-size: 12px; font-weight: 200;" fill="rgb(50, 49, 63)" stroke="none" stroke-width="1px">-5e-4</text><text x="0" y="161.8181818181818" dx="0em" dy="0.3em" style="text-anchor: end; visibility: inherit; font-family: &quot;Helvetica Neue&quot;, sans-serif; font-size: 12px; font-weight: 200;" fill="rgb(50, 49, 63)" stroke="none" stroke-width="1px">0</text><text x="0" y="145.63636363636363" dx="0em" dy="0.3em" style="text-anchor: end; visibility: hidden; font-family: &quot;Helvetica Neue&quot;, sans-serif; font-size: 12px; font-weight: 200;" fill="rgb(50, 49, 63)" stroke="none" stroke-width="1px">5e-4</text><text x="0" y="129.45454545454544" dx="0em" dy="0.3em" style="text-anchor: end; visibility: inherit; font-family: &quot;Helvetica Neue&quot;, sans-serif; font-size: 12px; font-weight: 200;" fill="rgb(50, 49, 63)" stroke="none" stroke-width="1px">1e-3</text><text x="0" y="113.27272727272727" dx="0em" dy="0.3em" style="text-anchor: end; visibility: hidden; font-family: &quot;Helvetica Neue&quot;, sans-serif; font-size: 12px; font-weight: 200;" fill="rgb(50, 49, 63)" stroke="none" stroke-width="1px">1.5e-3</text><text x="0" y="97.09090909090908" dx="0em" dy="0.3em" style="text-anchor: end; visibility: inherit; font-family: &quot;Helvetica Neue&quot;, sans-serif; font-size: 12px; font-weight: 200;" fill="rgb(50, 49, 63)" stroke="none" stroke-width="1px">2e-3</text><text x="0" y="80.90909090909089" dx="0em" dy="0.3em" style="text-anchor: end; visibility: hidden; font-family: &quot;Helvetica Neue&quot;, sans-serif; font-size: 12px; font-weight: 200;" fill="rgb(50, 49, 63)" stroke="none" stroke-width="1px">2.5e-3</text><text x="0" y="64.7272727272727" dx="0em" dy="0.3em" style="text-anchor: end; visibility: inherit; font-family: &quot;Helvetica Neue&quot;, sans-serif; font-size: 12px; font-weight: 200;" fill="rgb(50, 49, 63)" stroke="none" stroke-width="1px">3e-3</text><text x="0" y="48.54545454545453" dx="0em" dy="0.3em" style="text-anchor: end; visibility: hidden; font-family: &quot;Helvetica Neue&quot;, sans-serif; font-size: 12px; font-weight: 200;" fill="rgb(50, 49, 63)" stroke="none" stroke-width="1px">3.5e-3</text><text x="0" y="32.363636363636346" dx="0em" dy="0.3em" style="text-anchor: end; visibility: inherit; font-family: &quot;Helvetica Neue&quot;, sans-serif; font-size: 12px; font-weight: 200;" fill="rgb(50, 49, 63)" stroke="none" stroke-width="1px">4e-3</text><text x="0" y="16.181818181818215" dx="0em" dy="0.3em" style="text-anchor: end; visibility: hidden; font-family: &quot;Helvetica Neue&quot;, sans-serif; font-size: 12px; font-weight: 200;" fill="rgb(50, 49, 63)" stroke="none" stroke-width="1px">4.5e-3</text><text x="0" y="0" dx="0em" dy="0.3em" style="text-anchor: end; visibility: hidden; font-family: &quot;Helvetica Neue&quot;, sans-serif; font-size: 12px; font-weight: 200;" fill="rgb(50, 49, 63)" stroke="none" stroke-width="1px">5e-3</text></g><line x1="70" y1="0" x2="70" y2="178" fill="rgb(0, 0, 0)" stroke="rgb(204, 204, 204)" stroke-width="1px"></line></g></g><g transform="translate(70, 0)" clip-path="url(#clip_0)"><clipPath id="clip_0"><rect width="260" height="178"></rect></clipPath><g><g><g><line x1="0" y1="0" x2="0" y2="178" fill="rgb(0, 0, 0)" stroke="rgb(60, 60, 60)" stroke-width="1px" opacity="0.25"></line><line x1="20" y1="0" x2="20" y2="178" fill="rgb(0, 0, 0)" stroke="rgb(60, 60, 60)" stroke-width="1px" opacity="0.25"></line><line x1="40" y1="0" x2="40" y2="178" fill="rgb(0, 0, 0)" stroke="rgb(60, 60, 60)" stroke-width="1px" opacity="0.25"></line><line x1="60" y1="0" x2="60" y2="178" fill="rgb(0, 0, 0)" stroke="rgb(60, 60, 60)" stroke-width="1px" opacity="0.25"></line><line x1="80" y1="0" x2="80" y2="178" fill="rgb(0, 0, 0)" stroke="rgb(60, 60, 60)" stroke-width="1px" opacity="0.25"></line><line x1="100" y1="0" x2="100" y2="178" fill="rgb(0, 0, 0)" stroke="rgb(60, 60, 60)" stroke-width="1px" opacity="0.25"></line><line x1="120" y1="0" x2="120" y2="178" fill="rgb(0, 0, 0)" stroke="rgb(60, 60, 60)" stroke-width="1px" opacity="0.25"></line><line x1="140" y1="0" x2="140" y2="178" fill="rgb(0, 0, 0)" stroke="rgb(60, 60, 60)" stroke-width="1px" opacity="0.25"></line><line x1="160" y1="0" x2="160" y2="178" fill="rgb(0, 0, 0)" stroke="rgb(60, 60, 60)" stroke-width="1px" opacity="0.25"></line><line x1="180" y1="0" x2="180" y2="178" fill="rgb(0, 0, 0)" stroke="rgb(60, 60, 60)" stroke-width="1px" opacity="0.25"></line><line x1="200" y1="0" x2="200" y2="178" fill="rgb(0, 0, 0)" stroke="rgb(60, 60, 60)" stroke-width="1px" opacity="0.25"></line><line x1="220" y1="0" x2="220" y2="178" fill="rgb(0, 0, 0)" stroke="rgb(60, 60, 60)" stroke-width="1px" opacity="0.25"></line><line x1="240" y1="0" x2="240" y2="178" fill="rgb(0, 0, 0)" stroke="rgb(60, 60, 60)" stroke-width="1px" opacity="0.25"></line><line x1="260" y1="0" x2="260" y2="178" fill="rgb(0, 0, 0)" stroke="rgb(60, 60, 60)" stroke-width="1px" opacity="0.25"></line></g><g><line x1="0" y1="178" x2="260" y2="178" fill="rgb(0, 0, 0)" stroke="rgb(60, 60, 60)" stroke-width="1px" opacity="0.25"></line><line x1="0" y1="161.8181818181818" x2="260" y2="161.8181818181818" fill="rgb(0, 0, 0)" stroke="rgb(60, 60, 60)" stroke-width="1px" opacity="0.25"></line><line x1="0" y1="145.63636363636363" x2="260" y2="145.63636363636363" fill="rgb(0, 0, 0)" stroke="rgb(60, 60, 60)" stroke-width="1px" opacity="0.25"></line><line x1="0" y1="129.45454545454544" x2="260" y2="129.45454545454544" fill="rgb(0, 0, 0)" stroke="rgb(60, 60, 60)" stroke-width="1px" opacity="0.25"></line><line x1="0" y1="113.27272727272727" x2="260" y2="113.27272727272727" fill="rgb(0, 0, 0)" stroke="rgb(60, 60, 60)" stroke-width="1px" opacity="0.25"></line><line x1="0" y1="97.09090909090908" x2="260" y2="97.09090909090908" fill="rgb(0, 0, 0)" stroke="rgb(60, 60, 60)" stroke-width="1px" opacity="0.25"></line><line x1="0" y1="80.90909090909089" x2="260" y2="80.90909090909089" fill="rgb(0, 0, 0)" stroke="rgb(60, 60, 60)" stroke-width="1px" opacity="0.25"></line><line x1="0" y1="64.7272727272727" x2="260" y2="64.7272727272727" fill="rgb(0, 0, 0)" stroke="rgb(60, 60, 60)" stroke-width="1px" opacity="0.25"></line><line x1="0" y1="48.54545454545453" x2="260" y2="48.54545454545453" fill="rgb(0, 0, 0)" stroke="rgb(60, 60, 60)" stroke-width="1px" opacity="0.25"></line><line x1="0" y1="32.363636363636346" x2="260" y2="32.363636363636346" fill="rgb(0, 0, 0)" stroke="rgb(60, 60, 60)" stroke-width="1px" opacity="0.25"></line><line x1="0" y1="16.181818181818215" x2="260" y2="16.181818181818215" fill="rgb(0, 0, 0)" stroke="rgb(60, 60, 60)" stroke-width="1px" opacity="0.25"></line><line x1="0" y1="0" x2="260" y2="0" fill="rgb(0, 0, 0)" stroke="rgb(60, 60, 60)" stroke-width="1px" opacity="0.25"></line></g></g></g><g><g><line x1="0" y1="161.8181818181818" x2="260" y2="161.8181818181818" fill="rgb(0, 0, 0)" stroke="rgb(153, 153, 153)" stroke-width="1.5px"></line></g></g><g><g><line x1="20" y1="0" x2="20" y2="178" fill="rgb(0, 0, 0)" stroke="rgb(153, 153, 153)" stroke-width="1.5px"></line></g></g><g><g><g><g><g><path stroke="rgb(255, 112, 67)" stroke-width="2px" d="M20,117.30644214559686L21,28.027478391304584L22,27.288629231570155L23,45.451407754970575L24,78.07791442473837L25,91.22144335055157L26,95.62865248638768L27,110.92085831115111L28,118.8678541606736L29,117.34833622397838L30,122.40504210152642L31,126.08718241749503L32,130.98162258605615L33,131.04012054919446L34,126.13636370278383L35,121.87898301257198L36,121.28127544183748L37,129.46119394327812L38,123.10591295028422L39,119.54259431596421L40,119.49393363491538L41,111.61569601065543L42,116.80828579917696L43,114.55204803845551L44,121.66542730685512L45,119.97028499846321L46,118.42427184493538L47,110.47404621453522L48,112.32636254311785L49,117.61152574373354L50,123.98087347815738L51,121.71663415657369L52,117.51613020927924L53,117.85610506186148L54,116.28008090392674L55,112.29348513628109L56,102.1245160053831L57,95.89511676045154L58,104.09746833416855L59,105.01690995911123L60,109.5106571153156L61,107.82150509513971L62,103.6769020359216L63,104.71794508919804L64,87.14704141693326L65,95.00707015915451L66,107.8560022984843L67,102.47238739756887L68,99.66055724628389L69,95.77477978285108L70,99.20768327621234L71,94.37912217766471L72,96.18430773745911L73,105.1151595575742L74,94.70088558951966L75,83.65203174577613L76,85.09471036027327L77,89.99035411657864L78,100.29543291948235L79,101.0096712231051L80,106.25077557029263L81,111.08170874746358L82,113.50446456936216L83,117.22663108364527L84,105.80132806702828L85,102.53748683411865L86,97.48853452019738L87,77.7080755394379L88,81.62469736596928L89,91.44130230178662L90,102.78944803708386L91,87.04200523158066L92,96.6223617962337L93,94.5885094433194L94,92.6617867768939L95,92.00138550851828L96,94.27930720307337L97,96.00304703373095L98,76.50281947582535L99,91.05379310468396L100,80.53944266352609L101,97.58212962158653L102,94.39619096300248L103,91.22569910043677L104,89.69512672445785L105,91.61463541656067L106,89.01571399058138L107,89.0067531287332L108,90.6046328792044L109,88.9803024155972L110,75.19646061010714L111,79.0929529981305L112,95.17865962985638L113,90.77577476026704L114,90.59347890184304L115,72.65147085272494L116,79.50148058919227L117,85.2953276365287L118,81.79006742007168L119,90.52289384453564L120,77.85297004680187L121,61.43961524221237L122,78.82990513892732L123,82.0311830415885L124,89.05432726968507L125,100.1409748020882L126,104.78305543175752L127,80.19099683481214L128,77.93641878398729L129,81.09358015144804L130,75.67810032575471L131,76.73527802088074L132,87.02610523220643L133,97.43412445845073L134,90.27381573995706L135,87.94191549647304L136,84.70243612187177L137,99.60662331395679L138,103.53837468114585L139,100.5976411398205L140,111.09141157313087L141,105.15939025915908L142,102.43189384298418L143,106.12758944919209L144,105.610737204766L145,106.61489940244354L146,104.40365739147359L147,104.77448562317838L148,105.66436877636544L149,95.22748192395554L150,82.72142772523036L151,79.46260138323208L152,90.04533901400094L153,97.20428814221728L154,94.89902752205587L155,101.52166342503017L156,94.29225974918931L157,92.41754293309387L158,98.02841072314656L159,98.06328404105275L160,95.84712000176162L161,99.79926602546918L162,90.8284662685882L163,93.94017115637931L164,93.2412437983307L165,94.22645729112344L166,95.20269675395969L167,95.31244796610036L168,97.29924998665818L169,93.35082235218971L170,93.3449757397721L171,99.06627468659687L172,96.14720614191417L173,97.06415848612882L174,94.16145398724137L175,92.06789911719271L176,95.66493198831145L177,96.03854316399959L178,104.17612002502308L179,87.18367738524061L180,93.32788248183445L181,93.28368249808835L182,86.64021860254134L183,98.56258688534693L184,106.2502854506099L185,99.5771672974346L186,99.09113819032092L187,107.12904677319037L188,108.0481786833853L189,107.12927960197034L190,96.78683101791626L191,87.83797159722899L192,90.07105031704144L193,94.01141804256093L194,94.20002770818284L195,106.80915464941324L196,106.08141109066676L197,99.61530501972122L198,87.8205403122768L199,84.71677271218799L200,91.33375450067018L201,97.2661337629043L202,92.63340582699077L203,92.88283860697284L204,102.36863376059493L205,114.94842685722057L206,111.83684008681782L207,98.74543489028328L208,80.94339151740208L209,83.94037663674433L210,88.71291026315737L211,95.8766598597213L212,96.5739329676492L213,101.9790715844918L214,98.06868322917751L215,90.56455604895584L216,98.5774441418653L217,97.14631106058933L218,99.3342608912977L219,86.90728381138561L220,83.7716751632239L221,89.02279433179227L222,92.88462429277007L223,95.31063370506924L224,99.00090555432739L225,78.85841340147168L226,90.39358833082687L227,94.7143340490785L228,98.0002200547012L229,89.11701538278123L230,94.67107314575696L231,84.0115335262899L232,90.63182194705945L233,92.21770758598369L234,96.13533193651249L235,103.68720523951677L236,103.02516708757146" style="fill: none;" fill="none"></path></g></g></g></g><g opacity="0.2"><g><g><g><path stroke="rgb(255, 112, 67)" stroke-width="2px" d="M20,117.30644214559686L21,-25.539899861270754L22,26.579334038225056L23,66.81083529848944L24,120.6750815327872L25,109.40367552536455L26,101.93103206597945L27,133.2170412088321L28,130.5881294142455L29,115.09202917868441L30,129.94423696771264L31,131.59035484645176L32,138.30730164254254L33,131.12775289030236L34,118.78649261526087L35,115.49591461196542L36,120.38496701554817L37,141.7289948150177L38,113.57395962388678L39,114.1979420659217L40,119.42094528200951L41,99.79859881103039L42,124.59706796333194L43,111.16771812466057L44,132.3354456505992L45,117.42757876488295L46,116.10525607046756L47,98.54871997440402L48,115.10483532974666L49,125.53926762362772L50,133.53489296764812L51,118.32027562470597L52,111.21537478979339L53,118.36606731638312L54,113.91604473475705L55,106.31359158761121L56,86.87106246636672L57,86.5510179508816L58,116.4009956490587L59,106.39607239345257L60,116.2512778406116L61,105.28777706690809L62,97.45999745008619L63,106.27950966866179L64,60.790685913102195L65,106.7971132712608L66,127.12940050627697L67,94.3969650464979L68,95.4428120194511L69,89.94611358778043L70,104.3570385162126L71,87.13628052987836L72,98.89208607714285L73,118.51143728772348L74,79.0794746374542L75,67.07875098017128L76,87.25872828201814L77,97.33381975103508L78,115.75305112383583L79,102.08102867853911L80,114.11243209107354L81,118.32810851321977L82,117.13859830220991L83,122.8098808550699L84,88.66337354210289L85,97.64172498475422L86,89.9151060493155L87,48.03738706829873L88,87.49963010576637L89,106.16620970551263L90,119.8116666400297L91,63.42084102332592L92,110.99289664321324L93,91.53773091394793L94,89.77170277725567L95,91.01078360595486L96,97.696189744906L97,98.58865677971731L98,47.25247813896698L99,112.88025354797189L100,64.76791700178926L101,123.1461600586772L102,89.6172829751264L103,86.46996130658822L104,87.39926816048946L105,94.49389845471491L106,85.11733185161243L107,88.99331183596091L108,93.0014525049112L109,86.54380672018635L110,54.520697901872055L111,84.9376915801655L112,119.30721957744521L113,84.17144745588303L114,90.32003511420704L115,45.73845877904782L116,89.77649519389325L117,93.98609820753335L118,76.5321770953861L119,103.6221334812316L120,58.848084350201205L121,36.81958303532815L122,104.91533998399973L123,86.83309989558025L124,99.58904361182992L125,116.77094610069287L126,111.74617637626149L127,43.30290893939406L128,74.55455170775001L129,85.82932220263915L130,67.55488058721477L131,78.3210445635698L132,102.46234604919498L133,113.04615329781716L134,79.53335266221653L135,84.44406513124704L136,79.8432170599699L137,121.96290410208431L138,109.43600173192945L139,96.18654082783243L140,126.83206722309643L141,96.26135828820141L142,98.34064921872182L143,111.67113285850395L144,104.83545883812687L145,108.12114269895987L146,101.08679437501864L147,105.3307279707356L148,106.99919350614601L149,79.5721516453407L150,63.96234642714262L151,74.57436187023465L152,105.91944546015425L153,107.94271183454177L154,91.44113659181377L155,111.45561727949163L156,83.44815423542802L157,89.60546770895068L158,106.44471240822564L159,98.11559401791204L160,92.52287394282492L161,105.72748506103049L162,77.37226663326675L163,98.60772848806597L164,92.19285276125778L165,95.70427753031252L166,96.6670559482141L167,95.47707478431137L168,100.27945301749489L169,87.42818090048702L170,93.33620582114567L171,107.64822310683401L172,91.76860332489012L173,98.43958700245076L174,89.80739723891018L175,88.92756681211971L176,101.06048129498959L177,96.5989599275318L178,116.3824853165583L179,61.69501342556693L180,102.54419012672521L181,93.21738252246921L182,76.67502275922082L183,116.44613930955529L184,117.78183329850435L185,89.56749006767164L186,98.36209452965042L187,119.18590964749455L188,109.42687654867768L189,105.75093097984791L190,81.27315814183517L191,74.41468246619809L192,93.42066839676012L193,99.92196963084014L194,94.48294220661575L195,125.72284506125882L196,104.989795752547L197,89.91614591330288L198,70.1283932511102L199,80.06112131205471L200,101.25922718339345L201,106.16470265625553L202,85.6843139231205L203,93.25698777694593L204,116.59732649102807L205,133.81811650215903L206,107.16945993121375L207,79.10832709548147L208,54.24032645808023L209,88.43585431575775L210,95.8717107027769L211,106.62228425456719L212,97.61984262954105L213,110.08677950975569L214,92.20310069620608L215,79.30836527862333L216,110.59677628122947L217,94.99961143867536L218,102.61618563736026L219,68.26681819151747L220,79.06826219098134L221,96.89947308464484L222,98.67736923423679L223,98.94964782351796L224,104.53631332821466L225,48.644675172188045L226,107.69635072485967L227,101.19545262645592L228,102.92904906313528L229,75.79220837490125L230,103.00215979022057L231,68.02222409708934L232,100.5622545782138L233,94.59653604437004L234,102.01176846230571L235,115.01501519402319L236,102.03210985965349" style="fill: none;" fill="none"></path></g></g></g></g></g></g><g transform="translate(70, 178)" clip-path="url(#clip_1)"><clipPath id="clip_1"><rect width="260" height="22"></rect></clipPath><g><g><line x1="0" y1="0" x2="0" y2="5" style="visibility: inherit;" fill="rgb(0, 0, 0)" stroke="rgb(204, 204, 204)" stroke-width="1px"></line><line x1="20" y1="0" x2="20" y2="5" style="visibility: inherit;" fill="rgb(0, 0, 0)" stroke="rgb(204, 204, 204)" stroke-width="1px"></line><line x1="40" y1="0" x2="40" y2="5" style="visibility: inherit;" fill="rgb(0, 0, 0)" stroke="rgb(204, 204, 204)" stroke-width="1px"></line><line x1="60" y1="0" x2="60" y2="5" style="visibility: inherit;" fill="rgb(0, 0, 0)" stroke="rgb(204, 204, 204)" stroke-width="1px"></line><line x1="80" y1="0" x2="80" y2="5" style="visibility: inherit;" fill="rgb(0, 0, 0)" stroke="rgb(204, 204, 204)" stroke-width="1px"></line><line x1="100" y1="0" x2="100" y2="5" style="visibility: inherit;" fill="rgb(0, 0, 0)" stroke="rgb(204, 204, 204)" stroke-width="1px"></line><line x1="120" y1="0" x2="120" y2="5" style="visibility: inherit;" fill="rgb(0, 0, 0)" stroke="rgb(204, 204, 204)" stroke-width="1px"></line><line x1="140" y1="0" x2="140" y2="5" style="visibility: inherit;" fill="rgb(0, 0, 0)" stroke="rgb(204, 204, 204)" stroke-width="1px"></line><line x1="160" y1="0" x2="160" y2="5" style="visibility: inherit;" fill="rgb(0, 0, 0)" stroke="rgb(204, 204, 204)" stroke-width="1px"></line><line x1="180" y1="0" x2="180" y2="5" style="visibility: inherit;" fill="rgb(0, 0, 0)" stroke="rgb(204, 204, 204)" stroke-width="1px"></line><line x1="200" y1="0" x2="200" y2="5" style="visibility: inherit;" fill="rgb(0, 0, 0)" stroke="rgb(204, 204, 204)" stroke-width="1px"></line><line x1="220" y1="0" x2="220" y2="5" style="visibility: inherit;" fill="rgb(0, 0, 0)" stroke="rgb(204, 204, 204)" stroke-width="1px"></line><line x1="240" y1="0" x2="240" y2="5" style="visibility: inherit;" fill="rgb(0, 0, 0)" stroke="rgb(204, 204, 204)" stroke-width="1px"></line><line x1="260" y1="0" x2="260" y2="5" style="visibility: inherit;" fill="rgb(0, 0, 0)" stroke="rgb(204, 204, 204)" stroke-width="1px"></line></g><g transform="translate(0, 8)"><text x="0" y="0" dx="0em" dy="0.95em" style="text-anchor: middle; visibility: hidden; font-family: &quot;Helvetica Neue&quot;, sans-serif; font-size: 12px; font-weight: 200;" fill="rgb(50, 49, 63)" stroke="none" stroke-width="1px">-20</text><text x="20" y="0" dx="0em" dy="0.95em" style="text-anchor: middle; visibility: inherit; font-family: &quot;Helvetica Neue&quot;, sans-serif; font-size: 12px; font-weight: 200;" fill="rgb(50, 49, 63)" stroke="none" stroke-width="1px">0</text><text x="40" y="0" dx="0em" dy="0.95em" style="text-anchor: middle; visibility: hidden; font-family: &quot;Helvetica Neue&quot;, sans-serif; font-size: 12px; font-weight: 200;" fill="rgb(50, 49, 63)" stroke="none" stroke-width="1px">20</text><text x="60" y="0" dx="0em" dy="0.95em" style="text-anchor: middle; visibility: inherit; font-family: &quot;Helvetica Neue&quot;, sans-serif; font-size: 12px; font-weight: 200;" fill="rgb(50, 49, 63)" stroke="none" stroke-width="1px">40</text><text x="80" y="0" dx="0em" dy="0.95em" style="text-anchor: middle; visibility: hidden; font-family: &quot;Helvetica Neue&quot;, sans-serif; font-size: 12px; font-weight: 200;" fill="rgb(50, 49, 63)" stroke="none" stroke-width="1px">60</text><text x="100" y="0" dx="0em" dy="0.95em" style="text-anchor: middle; visibility: inherit; font-family: &quot;Helvetica Neue&quot;, sans-serif; font-size: 12px; font-weight: 200;" fill="rgb(50, 49, 63)" stroke="none" stroke-width="1px">80</text><text x="120" y="0" dx="0em" dy="0.95em" style="text-anchor: middle; visibility: hidden; font-family: &quot;Helvetica Neue&quot;, sans-serif; font-size: 12px; font-weight: 200;" fill="rgb(50, 49, 63)" stroke="none" stroke-width="1px">100</text><text x="140" y="0" dx="0em" dy="0.95em" style="text-anchor: middle; visibility: inherit; font-family: &quot;Helvetica Neue&quot;, sans-serif; font-size: 12px; font-weight: 200;" fill="rgb(50, 49, 63)" stroke="none" stroke-width="1px">120</text><text x="160" y="0" dx="0em" dy="0.95em" style="text-anchor: middle; visibility: hidden; font-family: &quot;Helvetica Neue&quot;, sans-serif; font-size: 12px; font-weight: 200;" fill="rgb(50, 49, 63)" stroke="none" stroke-width="1px">140</text><text x="180" y="0" dx="0em" dy="0.95em" style="text-anchor: middle; visibility: inherit; font-family: &quot;Helvetica Neue&quot;, sans-serif; font-size: 12px; font-weight: 200;" fill="rgb(50, 49, 63)" stroke="none" stroke-width="1px">160</text><text x="200" y="0" dx="0em" dy="0.95em" style="text-anchor: middle; visibility: hidden; font-family: &quot;Helvetica Neue&quot;, sans-serif; font-size: 12px; font-weight: 200;" fill="rgb(50, 49, 63)" stroke="none" stroke-width="1px">180</text><text x="220" y="0" dx="0em" dy="0.95em" style="text-anchor: middle; visibility: inherit; font-family: &quot;Helvetica Neue&quot;, sans-serif; font-size: 12px; font-weight: 200;" fill="rgb(50, 49, 63)" stroke="none" stroke-width="1px">200</text><text x="240" y="0" dx="0em" dy="0.95em" style="text-anchor: middle; visibility: hidden; font-family: &quot;Helvetica Neue&quot;, sans-serif; font-size: 12px; font-weight: 200;" fill="rgb(50, 49, 63)" stroke="none" stroke-width="1px">220</text><text x="260" y="0" dx="0em" dy="0.95em" style="text-anchor: middle; visibility: hidden; font-family: &quot;Helvetica Neue&quot;, sans-serif; font-size: 12px; font-weight: 200;" fill="rgb(50, 49, 63)" stroke="none" stroke-width="1px">240</text></g><line x1="0" y1="0" x2="260" y2="0" fill="rgb(0, 0, 0)" stroke="rgb(204, 204, 204)" stroke-width="1px"></line></g></g></g></g></svg>
